<?xml version="1.0" encoding="utf-8"?>
<!-- Generator: Adobe Illustrator 16.0.0, SVG Export Plug-In . SVG Version: 6.00 Build 0)  -->
<!DOCTYPE svg PUBLIC "-//W3C//DTD SVG 1.1//EN" "http://www.w3.org/Graphics/SVG/1.1/DTD/svg11.dtd">
<svg xmlns:xlink="http://www.w3.org/1999/xlink" version="1.1" id="Layer_1" xmlns="http://www.w3.org/2000/svg" x="0px"
     y="0px"
     width="51px" height="51px" viewBox="0 0 51 51" enable-background="new 0 0 51 51" xml:space="preserve">
<rect x="32.519" y="21.07" transform="matrix(0.7071 0.7071 -0.7071 0.7071 36.2324 -15.0723)" fill="#00B9F2"
      width="7.582" height="30.261"/>
    <rect x="21.126" y="10.989" transform="matrix(0.7071 0.7071 -0.7071 0.7071 21.0783 -21.3305)" fill="#00B9F2"
          width="30.323" height="7.581"/>
    <circle fill="#EFEFEF" cx="25.567" cy="46.942" r="3.79"/>
    <circle fill="#EFEFEF" cx="25.567" cy="25.501" r="3.79"/>
    <circle fill="#EFEFEF" cx="36.288" cy="36.222" r="3.79"/>
    <circle fill="#EFEFEF" cx="25.567" cy="4.059" r="3.791"/>
    <circle fill="#EFEFEF" cx="36.288" cy="14.779" r="3.79"/>
    <circle fill="#EFEFEF" cx="47.009" cy="25.501" r="3.79"/>
    <rect x="5.629" y="12.397" transform="matrix(-0.7072 -0.707 0.707 -0.7072 1.8875 40.9272)" fill="#FE1254"
          width="7.58" height="15.352"/>
    <rect x="1.717" y="27.199" transform="matrix(-0.7071 -0.7071 0.7071 -0.7071 -5.7281 59.6069)" fill="#FE1254"
          width="15.527" height="7.582"/>
    <circle fill="#EFEFEF" cx="14.712" cy="14.778" r="3.79"/>
    <circle fill="#EFEFEF" cx="14.712" cy="36.221" r="3.791"/>
    <circle fill="#EFEFEF" cx="3.991" cy="25.499" r="3.79"/>
</svg>
