<svg xmlns="http://www.w3.org/2000/svg" xmlns:xlink="http://www.w3.org/1999/xlink" id="Layer_1" width="51" height="51" x="0" y="0" enable-background="new 0 0 51 51" version="1.1" viewBox="0 0 51 51" xml:space="preserve"><rect width="7.582" height="30.261" x="32.519" y="21.07" fill="#00B9F2" transform="matrix(0.7071 0.7071 -0.7071 0.7071 36.2324 -15.0723)"/><rect width="30.323" height="7.581" x="21.126" y="10.989" fill="#00B9F2" transform="matrix(0.7071 0.7071 -0.7071 0.7071 21.0783 -21.3305)"/><circle cx="25.567" cy="46.942" r="3.79" fill="#EFEFEF"/><circle cx="25.567" cy="25.501" r="3.79" fill="#EFEFEF"/><circle cx="36.288" cy="36.222" r="3.79" fill="#EFEFEF"/><circle cx="25.567" cy="4.059" r="3.791" fill="#EFEFEF"/><circle cx="36.288" cy="14.779" r="3.79" fill="#EFEFEF"/><circle cx="47.009" cy="25.501" r="3.79" fill="#EFEFEF"/><rect width="7.58" height="15.352" x="5.629" y="12.397" fill="#FE1254" transform="matrix(-0.7072 -0.707 0.707 -0.7072 1.8875 40.9272)"/><rect width="15.527" height="7.582" x="1.717" y="27.199" fill="#FE1254" transform="matrix(-0.7071 -0.7071 0.7071 -0.7071 -5.7281 59.6069)"/><circle cx="14.712" cy="14.778" r="3.79" fill="#EFEFEF"/><circle cx="14.712" cy="36.221" r="3.791" fill="#EFEFEF"/><circle cx="3.991" cy="25.499" r="3.79" fill="#EFEFEF"/></svg>