<?xml version="1.0" encoding="utf-8"?>
<!-- Generator: Adobe Illustrator 16.0.0, SVG Export Plug-In . SVG Version: 6.00 Build 0)  -->
<!DOCTYPE svg PUBLIC "-//W3C//DTD SVG 1.1//EN" "http://www.w3.org/Graphics/SVG/1.1/DTD/svg11.dtd">
<svg xmlns:xlink="http://www.w3.org/1999/xlink" version="1.1" id="Layer_1" xmlns="http://www.w3.org/2000/svg" x="0px"
     y="0px"
     width="400px" height="102px" viewBox="0 0 400 102" enable-background="new 0 0 400 102" xml:space="preserve">
<g>
	<path fill="#EFEFEF" d="M145.225,80.049c-2.986-1.352-5.449-3.277-7.387-5.777l6.736-8.27c2.908,3.934,6.199,5.895,9.873,5.895
		c5.104,0,7.654-2.957,7.654-8.879V29.873H143.35v-9.949h31.152V62.33c0,6.582-1.633,11.52-4.898,14.813
		c-3.268,3.289-8.088,4.934-14.467,4.934C151.512,82.076,148.209,81.4,145.225,80.049z"/>
    <path fill="#EFEFEF" d="M227.395,32.322v41.184h-11.328v-4.898c-1.584,1.785-3.473,3.148-5.666,4.094
		c-2.193,0.941-4.566,1.414-7.117,1.414c-5.41,0-9.697-1.555-12.861-4.668s-4.744-7.73-4.744-13.852V32.322h11.941v21.512
		c0,6.633,2.779,9.949,8.342,9.949c2.857,0,5.154-0.93,6.891-2.793c1.732-1.863,2.602-4.633,2.602-8.305V32.322H227.395z"/>
    <path fill="#EFEFEF" d="M275.885,36.303c3.139,3.063,4.707,7.605,4.707,13.625v23.578h-11.939V51.768
		c0-3.266-0.717-5.703-2.145-7.313c-1.43-1.605-3.496-2.41-6.199-2.41c-3.012,0-5.41,0.934-7.195,2.793
		c-1.787,1.863-2.68,4.633-2.68,8.305v20.363h-11.941V32.322h11.406v4.824c1.58-1.734,3.545-3.074,5.893-4.02
		s4.924-1.414,7.732-1.414C268.625,31.713,272.746,33.24,275.885,36.303z"/>
    <path fill="#EFEFEF" d="M316.186,71.514c-1.174,0.871-2.617,1.52-4.326,1.953s-3.482,0.648-5.318,0.648
		c-4.951,0-8.752-1.25-11.406-3.75c-2.652-2.5-3.98-6.172-3.98-11.02V23.213h11.941V33.24h10.182v9.188h-10.182v16.762
		c0,1.738,0.434,3.078,1.301,4.02c0.867,0.945,2.117,1.418,3.752,1.418c1.836,0,3.469-0.512,4.898-1.531L316.186,71.514z"/>
    <path fill="#EFEFEF" d="M363.412,32.322v41.184h-11.404V68.76c-2.961,3.57-7.246,5.355-12.859,5.355
		c-3.879,0-7.387-0.863-10.525-2.602c-3.139-1.734-5.602-4.211-7.387-7.426c-1.787-3.215-2.68-6.938-2.68-11.172
		c0-4.238,0.893-7.961,2.68-11.176c1.785-3.219,4.248-5.691,7.387-7.426s6.646-2.602,10.525-2.602c5.254,0,9.363,1.656,12.322,4.973
		v-4.363H363.412z M348.717,61.217c1.99-2.063,2.984-4.832,2.984-8.301c0-3.473-0.994-6.238-2.984-8.309
		c-1.99-2.066-4.492-3.098-7.502-3.098c-3.063,0-5.588,1.031-7.578,3.098c-1.99,2.07-2.986,4.836-2.986,8.309
		c0,3.469,0.996,6.238,2.986,8.301c1.99,2.07,4.516,3.102,7.578,3.102C344.225,64.318,346.727,63.287,348.717,61.217z"/>
    <path fill="#EFEFEF" d="M391.617,33.24c2.424-1.02,5.219-1.527,8.383-1.527v11.02c-1.328-0.102-2.221-0.152-2.68-0.152
		c-3.42,0-6.098,0.957-8.037,2.871s-2.908,4.785-2.908,8.613v19.441h-11.941V32.322h11.404v5.438
		C387.268,35.768,389.193,34.264,391.617,33.24z"/>
</g>
    <rect x="64.636" y="42.139" transform="matrix(0.707 0.7072 -0.7072 0.707 72.3561 -29.8597)" fill="#00B9F2"
          width="15.163" height="60.522"/>
    <rect x="41.85" y="21.977" transform="matrix(0.7071 0.7071 -0.7071 0.7071 42.0387 -42.3764)" fill="#00B9F2"
          width="60.647" height="15.163"/>
    <circle fill="#EFEFEF" cx="50.731" cy="93.885" r="7.58"/>
    <path fill="#EFEFEF" d="M56.092,56.361c-2.959,2.961-7.76,2.961-10.721,0s-2.961-7.762,0-10.719c2.961-2.961,7.762-2.961,10.723,0
	C59.053,48.6,59.053,53.4,56.092,56.361z"/>
    <path fill="#EFEFEF" d="M77.533,77.803c-2.959,2.961-7.76,2.961-10.719,0c-2.963-2.961-2.963-7.762,0-10.719
	c2.959-2.961,7.76-2.961,10.719,0C80.496,70.041,80.496,74.842,77.533,77.803z"/>
    <path fill="#EFEFEF" d="M56.092,13.479c-2.959,2.957-7.76,2.957-10.721,0c-2.961-2.961-2.961-7.762,0-10.723s7.762-2.961,10.721,0
	C59.053,5.717,59.053,10.518,56.092,13.479z"/>
    <path fill="#EFEFEF" d="M77.533,34.92c-2.959,2.961-7.76,2.961-10.719,0c-2.963-2.961-2.963-7.762,0-10.723
	c2.959-2.961,7.76-2.961,10.719,0C80.494,27.158,80.496,31.959,77.533,34.92z"/>
    <path fill="#EFEFEF" d="M98.977,56.361c-2.961,2.961-7.762,2.961-10.721,0c-2.961-2.961-2.961-7.762,0-10.719
	c2.959-2.961,7.76-2.961,10.721,0C101.936,48.6,101.938,53.4,98.977,56.361z"/>
    <rect x="10.856" y="24.794" transform="matrix(-0.7072 -0.707 0.707 -0.7072 3.0881 81.57)" fill="#FE1254"
          width="15.16" height="30.704"/>
    <rect x="3.032" y="54.397" transform="matrix(-0.7071 -0.7071 0.7071 -0.7071 -12.143 118.9292)" fill="#FE1254"
          width="31.055" height="15.164"/>
    <path fill="#EFEFEF" d="M23.66,24.197c2.961-2.961,7.762-2.961,10.723,0c2.959,2.961,2.959,7.762,0,10.719
	c-2.961,2.961-7.762,2.961-10.723,0C20.699,31.959,20.699,27.158,23.66,24.197z"/>
    <circle fill="#EFEFEF" cx="29.021" cy="72.441" r="7.582"/>
    <path fill="#EFEFEF" d="M2.219,45.639c2.961-2.961,7.76-2.961,10.723,0c2.961,2.961,2.961,7.762,0,10.719
	c-2.963,2.961-7.762,2.961-10.723,0C-0.74,53.4-0.74,48.6,2.219,45.639z"/>
</svg>
