<?xml version="1.0" encoding="utf-8"?>
<!-- Generator: Adobe Illustrator 16.0.0, SVG Export Plug-In . SVG Version: 6.00 Build 0)  -->
<!DOCTYPE svg PUBLIC "-//W3C//DTD SVG 1.1//EN" "http://www.w3.org/Graphics/SVG/1.1/DTD/svg11.dtd">
<svg xmlns:xlink="http://www.w3.org/1999/xlink" version="1.1" id="Layer_1" xmlns="http://www.w3.org/2000/svg" x="0px"
     y="0px"
     width="2311px" height="2462px" viewBox="0 0 2311 2462" enable-background="new 0 0 2311 2462" xml:space="preserve">
<g transform="translate(0.000000,2462.000000) scale(0.100000,-0.100000)">
	<path fill="#F4F4F4" d="M11424.003,22186c-100-31-182.002-114-250-251c-64.004-129-88.008-250-81.006-415
		c14.004-335.996,152.998-550,397.998-615c71.006-19,210-19,284.004,0c145.996,37,244.004,114.004,309.004,242.996
		c146.992,291.008,115,719.004-67.002,919.004c-57.998,63-116.006,99-189.004,119
		C11759.003,22204.004,11482.001,22204.004,11424.003,22186z M11742.997,22034.004c217.002-74.004,307.002-501.008,169.004-794.004
		c-37.998-82.004-122.998-162.004-196.006-184c-160.996-50-300,44-376.992,255c-76.006,209-58.008,443.004,45.996,595
		C11465.995,22022.996,11617.001,22077,11742.997,22034.004z"/>
    <path fill="#F4F4F4" d="M12462.997,22160c-22.998-9-42.998-62.004-42.998-112.004c0-22.996,7.002-28.992,47.998-41.996
		c26.006-9,69.004-19,95-21.996c30-4.004,51.006-13.004,55-22.004c2.998-7.996-7.002-107.996-22.002-221s-35.996-276-46.992-361
		c-25-190.996-44.004-262.004-78.008-295.996c-23.994-24.004-30-25-88.994-19.004c-72.998,7.996-101.006-5-121.006-54
		c-11.992-26.996-10.996-34,9.004-61c12.002-15.996,24.004-30,27.998-30c57.002,0,252.002-25.996,337.002-45
		c110-25,185-30.996,244.004-19l31.992,6.996l-2.998,61.008l-2.998,60.996l-50,12c-27.002,5.996-70.996,12.004-97.002,12.004
		c-47.998,0.996-47.998,0.996-47.998,35c0,60,20,236.996,45,391.996c12.998,81.996,29.004,199,35,259
		c5,59.004,10.996,110,12.998,112c9.004,9,37.002-11,37.002-26c0-9,60-230,134.004-490l132.998-475l48.994-34
		c41.006-27.996,56.006-32,88.008-27.996c68.994,7.996,122.998,65,150.996,158.992c7.998,27.004,22.002,104.004,30,171.008
		c57.002,448.992,107.998,732.996,134.004,758.992c7.998,8.004,31.992,6.008,85.996-7.996c85-20.996,92.998-18,125,45l19.004,37
		l-27.002,25c-45,42.004-67.998,49-199.004,59c-70,5-170,21-223.994,34c-167.002,42-197.002,31-207.002-75.996l-5-49.004h43.994
		c39.004,0,145-22.004,155-33c9.004-7.996-16.992-252-45-432.996c-15.996-104.004-32.998-228.004-36.992-277.004
		c-5-75-9.004-86-21.006-75c-23.994,20-42.002,63-62.002,150c-10.996,45.996-71.992,260.996-135,475.996
		c-63.994,216.008-115.996,394.004-115.996,396.008c0,0.996-47.998,5.996-107.002,8.992c-60,3.004-138.994,12.004-177.998,20
		C12512.997,22167,12485.995,22169.004,12462.997,22160z"/>
    <path fill="#F4F4F4" d="M10804.999,22142.996c-15.996-1.996-77.998-15-137.002-28.992c-80-18.004-135.996-24.004-222.998-24.004
		c-64.004,0-125-4-135-10c-22.002-12.004-40-60-40-105.996V21940h112.998h114.004l20.996-122.004
		c49.004-277.996,85-708.992,67.998-800.996l-6.992-37h-66.006c-37.002,0-82.002-5-100-12.004c-30-10.996-32.998-15-27.998-42.996
		c4.004-15.996,10.996-42.004,15.996-55.996c16.006-40,73.008-45,212.002-20c61.006,10.996,165,25,229.004,30
		c157.002,13.992,197.998,35.996,197.998,107.996c0,65-29.004,75-160.996,59l-66.006-8.004l-20.996,133.004
		c-30,190-71.006,526-79.004,644c-8.994,147,19.004,191,111.006,179.004c52.998-8.004,71.992,2.996,92.998,53.992
		c12.998,32.004,12.002,36.008-12.002,68.004C10879.003,22150,10872.001,22152,10804.999,22142.996z"/>
    <path fill="#F4F4F4" d="M9914.003,22049.004c-25-7.004-35-19.004-49.004-55c-12.002-31.008-22.002-44.004-30.996-40
		c-74.004,27.996-134.004,37.996-215,33.992c-76.006-3.992-97.002-8.992-163.008-40.996c-133.994-67-236.992-194.004-292.998-362
		c-23.994-70.996-27.002-95-27.002-220c0-132.004,1.006-145,32.002-235c102.002-294,312.998-470,567.002-470
		s465.996,174.004,505.996,415c20,115-5,202-65,234.004c-22.998,12.996-30,12.996-60.996-2.004
		c-19.004-9.004-42.002-27.996-50.996-42c-16.006-24-16.006-35-4.004-120.996c10.996-85,10.996-99.004-4.004-139.004
		c-21.992-55.996-70-99-165-144c-143.994-68.004-272.998-41.996-380.996,75c-55,61-120,184-145.996,279
		c-22.002,82-30,262-14.004,334.004c25,112.996,77.998,190,162.002,235.996c48.994,27.996,60.996,30,155,30
		c95.996,0,102.998-0.996,143.994-30c75-53,112.002-125,144.004-277.004c5-26.996,7.002-27.996,75.996-27.996
		c56.006,0,71.006,2.996,76.006,17c15.996,40.996-57.002,423-101.006,528C9989.999,22062.996,9974.003,22067,9914.003,22049.004z"/>
    <path fill="#F4F4F4" d="M14092.997,21312.996c-197.002-252.996-355-445.996-372.002-455.996c-27.998-17-32.998-17-52.998-2.996
		c-27.998,20-97.002,20-122.002,0.996c-15-10.996-17.998-23-12.998-55.996c9.004-66.008,36.006-85,147.002-103.004
		c107.002-16.996,150-30,235.996-74c74.004-37,158.008-56.004,185-42c20,10.996,49.004,60,49.004,82.996
		c0,37.004-87.002,87.004-152.998,87.004c-37.002,0-42.998,21-22.998,75c15.996,42,106.992,166,126.992,172.996
		c5,2.004,76.006-18.992,157.001-45.996c81.006-27,166.006-52.996,190-57l42.002-7.004v-133.992V20620h-25
		c-12.998,0-55,5-92.002,10.996c-57.998,10-73.994,9.004-105.996-3.996c-34.003-15-37.001-19.004-31.005-44.004
		c16.005-70.996,62.001-105,174.003-128.992c267.998-57.004,335.996-81.008,505-179.004c60.996-35,150-79.004,200-99.004
		c49.004-20,165.996-78.996,260-130.996c200.996-110.996,315.996-169.004,375-190c40.996-15,42.998-14.004,85,15.996
		c44.004,31.004,50.996,42,104.004,162c16.992,37.004,48.994,94.004,70.996,125c22.002,32.004,40,68,40,81.008
		c0,12.996-12.002,45-27.002,72.996c-25,45.996-27.998,48-57.002,42.004c-67.998-15-73.994-21.008-125-128.008
		c-61.992-128.996-85-150-160-143.996c-68.994,5.996-360.996,148.996-360.996,177.004c0,36.992,42.998,141.992,110,265.996
		c39.004,72,117.998,227.996,177.998,347l107.002,217.004l35-6.008c19.004-2.996,47.998-16.996,65-30.996
		c24.004-20,37.002-22.996,77.002-20c55.996,5.996,77.998,20.996,77.998,55c0,67.004-59.004,115-197.002,159
		c-42.998,14-105,41.996-137.002,61.996c-120,72.004-240.996,103.004-273.994,70c-37.998-37.996,20.996-117.996,100.996-138.992
		l47.002-11.008l-5.996-41.996c-10-79-55-201.996-110-301c-30-55-95-182.004-144.004-282.004c-97.002-193.992-140-250-182.998-237
		c-12.002,3.008-76.006,35-142.002,69.004c-65.996,35-145.996,70.996-177.002,80l-57.998,15.996v82c0,200-30.996,995-40,1028.004
		c-14.004,51.996-52.002,86-110.996,98.004C14434.002,21762,14469.998,21796,14092.997,21312.996z M14489.998,21285v-215h-29.004
		c-15.996,0-58.994,9.004-95.996,21c-37.002,11-84.004,23.004-105.996,26.996l-39.003,7.004l115.995,175
		c130,195,133.008,200,145,200C14485.994,21500,14489.998,21402.996,14489.998,21285z"/>
    <path fill="#F4F4F4" d="M8102.001,21465c-17.002-14-34.004-39-37.002-55.996c-5.996-28.004,9.004-787.004,20-1024.004l5.996-110
		l-60-25.996c-75-34.004-96.992-64.004-80.996-114.004c15-45.996,50-69.004,92.002-60.996C8060,20077,8107.998,20100,8149.003,20125
		c80,47.996,110.996,60,235.996,94.004c125,35,149.004,57.996,157.998,148.992l4.004,53l-51.006-5.996
		c-27.998-4.004-75-18-103.994-32.004c-65-30.996-95-22-117.998,32.004c-15,35.996-20,190.996-6.006,210.996
		c4.004,6.004,25,17,46.006,24.004c21.992,7,72.998,27.996,115,47c41.992,20,103.994,45.996,137.998,59l62.002,23.004l50.996-46.008
		c50-45,110-132.996,110-162.996c0-8-20.996-25.996-47.002-40c-62.002-32.004-132.998-97.004-132.998-120.996
		c0-32.004,44.004-52.004,97.998-46.008c62.002,7.004,482.002,182.004,527.002,220c37.998,31.008,44.004,60,19.004,95
		c-18.008,26.008-53.008,28.004-149.004,10c-49.004-8.992-70-7.996-92.998,1.008c-47.998,20-286.006,275-536.006,575
		c-140.996,167.996-218.994,225.996-305,225.996C8142.998,21490,8122.998,21482,8102.001,21465z M8447.997,20991
		c52.998-76,62.998-101,37.998-101c-7.998,0-55-15.996-105-35c-48.994-19-96.992-35-103.994-35
		c-21.006,0-37.002,124.004-37.002,277.996l0.996,127.004l77.002-80C8360.995,21101,8419.999,21031,8447.997,20991z"/>
    <path fill="#F4F4F4" d="M7349.003,21135c-14.004-8-77.002-49-140-90.996C7147.001,21002,7052.998,20947,7002.001,20922
		c-84.004-40-96.006-49.004-112.998-86c-10-23.004-19.004-51-19.004-63.004c0-28.992,45-52.996,100-52.996c29.004,0,40-4,40-15
		c0-13,4.004-14,20.996-5c14.004,7.996,17.002,15,11.006,22.996c-7.002,8.004,0,24.004,22.002,50L7095,20811l37.002-38.004
		c70-72.996,400.996-612.996,385-628.992c-7.998-8.008-122.002,61.992-247.002,151.992c-69.004,49.004-172.002,120-229.004,158.008
		c-57.998,36.992-151.992,102.996-210,145.996c-162.998,119.004-148.994,117-263.994,42.996c-37.998-25-116.006-67-172.002-93.992
		c-62.002-29.004-105.996-56.008-109.004-66.008c-1.992-10-5.996-42.996-7.998-72.996l-2.998-55l52.998,0.996
		c34.004,1.004,60,8.008,72.002,19.004c27.998,25,90.996,30,129.004,10.996c40.996-21.992,73.994-68,182.998-260.996
		c50-88,117.998-202.004,150.996-254.004c71.006-113,104.004-180.996,112.998-238c5-32.996,3.008-42.996-6.992-42.996
		c-36.006,0-91.006-23-103.008-43c-7.998-12-17.998-39.004-20.996-60c-7.002-37-7.002-37,37.998-57
		c57.002-25,67.998-20.996,184.004,64.004c50.996,37.996,138.994,90,210,122.996c67.002,30.996,125,63,127.998,70.996
		c2.998,9.004,7.998,42.004,12.002,74.004l5.996,58h-45c-28.994,0-62.002-9.004-92.002-25c-26.992-14.004-63.994-25-85.996-25
		c-37.998,0-39.004,0.996-117.998,122.996C6885,20197,6759.003,20412,6772.001,20425c2.002,2,30-17.004,62.998-42.004
		c32.998-23.992,147.998-103.992,255-175.996c107.002-72,247.002-167.996,310-212.996
		c154.004-111.008,227.998-154.004,262.998-154.004c19.004,0,51.006,15.996,87.998,42.996c53.008,38,58.008,45,59.004,80
		c0,49.004-40.996,172.004-87.998,262.004c-20,39.004-97.002,160-170,269.004C7440,20661,7310,20889.004,7310,20917
		c0,5,22.998,20.996,50,35.996c67.002,38.004,84.004,65,77.002,124.004c-2.998,29-12.002,52.004-22.998,60
		C7392.001,21152.996,7382.001,21152.996,7349.003,21135z"/>
    <path fill="#F4F4F4" d="M17159.998,20364.004c-10.996-28.008-12.998-84.004-4.004-108.008c3.008-8.996,28.008-30.996,55-50.996
		c28.008-20,49.004-43,49.004-53c0-40-55-122.996-150.996-227c-56.006-60-141.006-162.004-189.004-225
		c-100-130-165.996-200.996-210.996-229.004c-37.002-23-77.002-13.996-121.006,27c-17.002,15-42.998,26.008-70.996,29.004
		c-37.998,5-47.002,2.004-61.006-17.996c-43.994-63.008-10-115,141.006-217.004c65-44.004,165-124.004,222.998-177
		c120-110.996,224.004-183,307.002-215.996c82.002-32.004,230.996-33.008,322.998-1.008
		c312.998,107.004,537.002,434.004,490.996,715c-27.998,172.004-130.996,315-333.994,466.008
		c-51.006,37.996-139.004,110-197.002,160.996c-140,122.996-177.002,150-212.002,150
		C17177,20390,17167,20384.004,17159.998,20364.004z M17507.996,19935.996c182.002-118,262.002-271.992,227.002-438
		c-34.004-165.996-177.998-338.992-344.004-415.996c-76.992-36.004-176.992-41.004-253.994-14.004
		c-79.004,28-177.002,100-237.002,175c-42.002,52.004-47.998,64.004-37.002,78c39.004,54.004,327.998,402,412.998,499.004
		c85,95.996,147.002,157,162.002,159.004C17439.998,19980,17472,19960,17507.996,19935.996z"/>
    <path fill="#F4F4F4" d="M5340,19579.004c-30-5-97.002-29.004-147.002-54.004c-78.994-39.004-105-59.004-175-132.004
		c-140.996-147.996-362.998-367-387.001-382.996c-20-13-23.994-25.996-28.994-88l-5-72h28.994c65,0.996,107.001,19.004,155,65.996
		l49.004,48.008l72.002-69.004c40-38,188.994-183,330.996-323l257.998-254.004l-25-42c-13.994-23.996-56.992-78-96.992-121.992
		c-40-43.008-88.008-101.008-107.002-127.004c-34.004-47-36.006-47.996-76.006-42c-85.996,14.004-257.998,57.996-555,140.996
		c-566.992,160-538.994,156.004-597.998,87c-55.996-67.996-55-65.996-32.998-123.992c30-75,85.996-168.008,185-304.004
		c47.998-65.996,167.998-240.996,265.996-388l180-267.996l-33.994-38.008c-24.004-26.992-36.006-51.992-41.006-85
		c-3.994-26.992-5-50-1.992-53c2.998-2.996,31.992-5.996,65-7c73.994-0.996,83.994,7,146.992,125
		c28.008,53.008,73.008,118.008,109.004,157c75,81.008,92.998,113,100.996,186.008l7.002,55.996h-42.002
		c-60,0-106.992-23-126.992-62.004c-41.006-80.996-67.002-85.996-116.006-25c-45,54.004-107.998,153-107.998,168
		s210.996,300,227.001,306.004c5.996,3,57.002-7,112.002-21.004c55-13.996,108.994-25.996,120-25.996
		c35.996,0,32.998-19.004-18.008-102.004c-71.992-117-65.996-157.996,23.008-157.996c50,0,85,35,181.992,179.004
		c105,158.992,394.004,493.992,608.008,705C5977.998,18567,6012.998,18607,6042.001,18665c50,97.996,67.998,165,67.998,260
		c0,175-85,335-255.996,485C5700,19545,5507.998,19607.996,5340,19579.004z M5585,19345.996c135-63,270-221.992,325-380.996
		c29.004-80.996,24.004-160.996-14.004-239.004c-56.992-115.996-226.992-251.992-280-223.996
		c-10.996,5.996-70,60.996-130.996,120.996c-60,61.008-149.004,143-195.996,184.004c-96.006,80-234.004,223.996-261.006,270.996
		l-17.998,30l47.002,62.004c47.998,64.004,140.996,147.996,195.996,177C5360,19402,5467.998,19402,5585,19345.996z M4350,18005.996
		c80.996-20,250-73.996,269.004-85c11.992-8,8.994-20-18.008-75c-32.998-68-70.996-100-127.998-111.992
		c-27.002-5-32.002-3.008-40.996,22.996c-5,15.996-30,53.996-54.004,83.996c-47.998,59.004-97.998,130-117.002,167
		c-10.996,21.008-10.996,23,6.006,19.004C4277.002,18024.004,4314.004,18014.004,4350,18005.996z"/>
    <path fill="#F4F4F4" d="M15629.998,19460c0-5,5-10,10.996-10c5,0,7.002,5,4.004,10c-2.998,5.996-7.998,10-10.996,10
		C15632,19470,15629.998,19465.996,15629.998,19460z"/>
    <path fill="#F4F4F4" d="M11464.999,19440c-277.002-20.996-542.002-74.004-710.996-140c-339.004-134.004-575-389.004-625-675
		c-37.002-213,46.992-478,202.998-640.996c23.994-25,40.996-54.004,43.994-76.008l6.006-35l-190-7c-237.998-8.996-250-5.996-345,82
		c-40,37.004-121.006,112.004-182.002,167.004c-60,55-175,160.996-255,235.996c-207.998,196.004-387.002,354.004-447.002,395
		l-50.996,36.004l-59.004-26.004c-32.002-15-125-65-207.998-110.996c-82.002-45.996-185-100-227.998-120.996
		c-80-38.008-84.004-44.004-57.998-90c2.998-7.004,276.992-285,608.994-619.004c669.004-673,645-653,802.002-675
		c140-20,552.998-30,969.004-23l413.994,5.996l-5.996,211.008c-7.002,275.996-34.004,441.992-87.998,547.996
		c-11.006,20.996-54.004,72.004-97.002,115c-64.004,65-80,88-94.004,133c-37.002,122.996-28.994,222,26.006,307.996
		c37.998,61.008,137.998,145,217.998,185c237.002,117.004,698.994,152.004,1002.998,76.008
		c320.996-81.008,474.004-297.004,404.004-570c-5-21.008-32.002-62.004-62.002-95C12337.997,17900,12277.997,17792,12260.995,17680
		c-5.996-35.996-10.996-177.004-10.996-313v-247.996l672.998,3.992c740,4.004,737.002,4.004,857.002,68
		c85.996,46.004,154.004,109.004,294.004,271.004c70,80.996,289.999,308,489.999,503c347.998,342,490.996,492,490.996,515.996
		c0,6.004-22.002,20-50,30c-27.002,10-102.002,48.008-165,84.004c-165,94.004-309.004,165-350,170.996
		c-34.004,6.004-42.998-0.996-384.999-311.992c-192.002-174.004-392.002-357.004-442.998-406.008
		c-52.002-48.992-112.002-100.996-135-115c-22.998-15-50-33.992-61.006-42c-18.994-16.992-150-40-230-40.996
		c-40.996,0-225,20-233.994,25c-7.998,5.996,22.998,67,37.998,75c25.996,14.004,125.996,167,154.004,237
		c73.994,180,73.994,445,2.998,623c-39.004,95.996-87.002,167.996-162.002,245c-190,192.996-492.998,317-905,370
		C11977.997,19444.004,11627.997,19452,11464.999,19440z"/>
    <path fill="#F4F4F4" d="M18277,19425c-17.002-17.004-31.006-94.004-21.006-120.996c4.004-10,19.004-32.004,35-49.004
		c15-15.996,32.002-42.004,38.008-57.004c10-27,3.994-33.992-290-305c-274.004-255-347.002-312.996-389.004-312
		c-7.998,0-24.004,14.004-35,32c-32.002,50-80,77.004-137.002,77.004h-50l7.002-52.004c7.998-58.992,34.004-125.996,65-165
		c10.996-13.992,62.002-62,114.004-107c105.996-91.992,146.992-135.996,230.996-250.996c52.998-72.004,245.996-298,265-310
		c12.998-8,100.996,44.004,185.996,110.996c103.008,80,189.004,174.004,210,231.004c16.006,40.996,16.006,43.996,0,62.004
		c-50,55-128.994,26.992-250-90l-85.996-82.004l-57.998,38c-74.004,49.004-174.004,150-246.006,247.996l-57.998,79.004l32.998,35
		c44.004,45.996,213.008,197.004,249.004,223l27.998,20l26.006-20.996c15-12.004,45-48.008,66.992-80
		c46.006-68.008,47.002-65-36.992-130c-93.008-72.004-106.006-120-45-169.004l40-30.996L18217,18272
		c30.996,15,87.998,63,162.998,138c62.998,62.996,140.996,137,172.998,164.004c65,53.992,117.002,118.992,117.002,146.992
		c0,32-27.998,49.004-80.996,49.004c-60,0-79.004-9.004-141.006-67.004l-47.998-43.992l-49.004,25
		c-60,30.996-92.998,77.996-80,113.992c28.008,74.004,111.006,150,194.004,178l49.004,17l45.996-50
		c25-27,87.002-102.996,137.998-167l92.002-118l-15.996-30.996c-9.004-17.996-54.004-69.004-99.004-112.996
		c-62.002-60-87.002-93.008-95.996-123.008c-12.002-40.996-12.002-43,17.998-71.992c28.994-29.004,32.002-30,72.998-19.004
		c44.004,12,55.996,22,127.002,107c22.002,27.004,82.002,77.004,132.002,112.004c100.996,68.992,103.994,72.996,102.998,111.992
		c-1.006,45-54.004,111.004-237.002,299.004c-94.004,95.996-199.004,210.996-235,255c-117.002,145.996-172.998,205.996-215,230.996
		C18295.994,19444.004,18295.994,19444.004,18277,19425z"/>
    <path fill="#F4F4F4" d="M19149.998,18364.004c-37.002-32.004-35-49.004,10-121.008c35-53.992,35.996-65,12.998-98.992
		c-52.002-80-435.996-342.004-667.998-456.008l-100-48.992l-29.004,60c-32.998,66.992-60,83.992-121.992,78.992
		c-36.006-2.996-39.004-5.996-42.002-35.996c-5-49.004,43.994-137.996,230-414.004c90-133.992,185-278.992,212.998-322.996
		c64.004-103,125-165,162.002-165c35,0.996,53.994,12,130.996,75c34.004,27.996,97.998,70,144.004,95
		c85.996,47,130.996,95.996,125.996,135c-5.996,42.996-127.002,72-180.996,42.996c-12.002-5.996-44.004-30-72.002-52.996
		c-27.002-23-60-48-72.998-54.004c-52.998-28-122.998,26.004-224.004,174.004c-70,100.996-77.002,115-87.002,169.004l-7.998,45
		l70,51.992c115,85,370,256.004,510,341.004c147.002,88.996,181.006,97.004,220,50.996c12.002-15,39.004-45.996,61.006-70
		L19472,17800l43.994,32c24.004,17.004,44.004,33.996,44.004,38c0,27-32.998,89.004-90,170c-37.002,52-94.004,142-125.996,199.004
		c-33.008,55.996-69.004,113.992-81.006,126.992C19232.996,18397.996,19189.998,18397,19149.998,18364.004z"/>
    <path fill="#F4F4F4" d="M7695,18049.004c-70.996-54.004-175.996-131.008-232.002-170c-107.998-75-195.996-160-190.996-184.004
		c2.998-13,972.001-1008,1362.998-1400.001c180.996-182.002,300-275,430-340c152.002-75,145-75,797.998-75h577.002l-2.002-880
		l-2.998-879.003l-22.998-22.998c-22.002-22.998-26.006-22.998-255-22.002c-147.002,1.006-259.004,6.006-307.002,15
		c-55,10-190.996,14.004-500,14.004c-352.002,0.996-437.002,4.004-497.998,17.998c-99.004,22.002-169.004,62.002-202.002,114.004
		c-45.996,70.996-50.996,130-49.004,515c4.004,608.993,14.004,588.993-545.996,1122.997
		c-125.996,120.996-465,452.998-750.996,737.001c-287.002,285-528.008,518-536.006,518s-123.994-115.996-257.002-257.004
		l-242.998-257l41.006-13.996c27.998-9.004,55.996-32,92.998-74.004c28.994-33.992,355.996-377.001,725-762.001
		c743.994-773.994,687.998-705,720.996-882.997c12.998-73.994,16.006-175,17.002-622.998c0-360,5-595,14.004-717.002l13.994-182.998
		h1619.003h1617.998v1605v1605h-714.004c-588.994,0-727.998,2.996-798.994,15c-222.002,39.004-365,125-542.998,327.996
		c-154.004,175-248.008,270-396.006,402.004c-75,65.996-160.996,150-190.996,185.996c-31.006,35-116.006,119.004-189.004,186.004
		c-155,140.996-447.998,437.004-447.998,452.004C7850,18162,7820,18145,7695,18049.004z"/>
    <path fill="#F4F4F4" d="M14814.002,17425.996l-719.003-725l-85-40c-47.002-21.992-122.998-50-170-63
		c-84.004-22-95.996-22-837.002-25l-752.998-3.992v-1582.003c0-1416.005,2.002-1584.999,15.996-1604.999l15-22.002h1598.008H15477
		l18.994,20.996c18.008,20,19.004,52.002,25,768.008c6.006,816.992,5,810,67.002,924.999c20,37.998,222.998,247.998,767.002,793.994
		c407.002,409.004,740,747.003,740,752.003c0,14.004-324.004,387.996-380.996,437.996c-105,94.004-35,143-601.006-415.996
		c-273.994-269.999-662.998-656.005-865-859.003c-402.002-402.998-398.994-398.994-435-557.002
		c-13.994-60-17.002-122.998-15-395.995c2.998-360.996-5.996-450-52.998-547.002c-37.002-73.994-122.002-160-165.996-167.002
		c-44.004-6.992-646.005-23.994-1104.003-30.996c-197.998-2.998-392.998-7.998-432.002-10.996l-72.998-5V14975v904.999h577.998
		c546.006,0,582.998,0.996,657.998,20c169.003,42.998,114.003-5.996,1069.003,949.005c529.004,530,865.996,873.992,860,878.992
		s-85.996,62.004-180,128c-92.998,65-222.998,158.008-287.998,206.004c-65,48.996-122.002,88-126.006,88
		C15537,18150,15209.998,17824.004,14814.002,17425.996z"/>
    <path fill="#F4F4F4" d="M3630.996,17254.004c-117.998-32.004-227.998-116.008-303.994-232.004
		c-67.998-104.004-307.002-620-307.002-662.001c0-42.998,23.999-80,52.002-80c27.998,0,80.996,59.004,103.994,114.005
		c17.002,40.996,23.008,45.996,51.006,45.996c52.002,0,148.994-35,245-90.001c50-29.004,162.998-82.998,250.996-120.996
		c152.998-66.006,337.002-165,337.002-181.006c0-5-12.998-32.002-30-60.996c-29.004-52.998-37.002-97.002-22.998-146.006
		c5.996-21.992,10-22.998,55.996-17.998c74.004,9.004,87.998,22.998,131.006,132.998c47.998,121.006,106.992,241.006,180,364.004
		c82.998,139.005,90.996,169.005,90.996,340.001c0,137.996-0.996,147.996-27.002,200c-37.002,75-110,164.004-187.998,227.996
		c-77.998,63-240,146.008-330,167.004C3839.004,17272.996,3702.002,17272.996,3630.996,17254.004z M3857.002,17044.004
		c245-54.004,443.994-229.004,460.996-404.004c5-58-28.994-150.996-105.996-282.999l-57.002-99.004l-42.002,5
		c-25.996,2.998-77.002,24.004-130.996,55c-49.004,27.998-140,74.003-202.998,102.003c-142.002,65-328.008,160-392.002,200
		c-57.002,35.996-57.998,30.996,15,180c42.002,85.996,63.994,117.996,122.998,177c44.004,43.996,84.004,75,105.996,80.996
		C3670.996,17070,3769.004,17064.004,3857.002,17044.004z"/>
    <path fill="#F4F4F4" d="M19904.998,16440c-175.996-19.004-357.002-97.999-475.996-207.999
		c-132.002-122.002-189.004-242.002-189.004-396.006c0-327.998,255-576.992,540.996-527.998
		c76.006,12.998,133.008,37.998,163.008,71.006c18.994,20.996,18.994,21.992,0,68.994c-27.002,62.998-50,71.006-153.008,47.002
		c-92.998-20.996-148.994-15.996-217.998,19.004c-100,50.996-153.994,138.994-155,253.994
		c-0.996,127.998,42.002,222.998,145,319.004c117.002,108.994,250,155.996,447.002,157.002c145,0.996,202.998-14.004,267.998-70
		c57.998-49.004,112.998-162.002,119.004-247.002c10-119.004-25-167.998-172.002-237.998
		c-122.002-58.008-145.996-94.004-115-169.004c24.004-57.002,62.998-54.004,237.002,19.004c65,26.992,150,58.994,190,70
		c60,17.998,77.002,27.998,102.998,60.996l32.002,40l-22.002,35c-14.004,22.002-32.998,37.998-52.998,42.998
		c-27.002,7.002-32.998,14.004-39.004,47.998c-3.994,21.006-7.002,62.002-7.998,89.004c-0.996,75.996-25.996,182.998-60,252.002
		C20400.994,16357.997,20159.998,16465.996,19904.998,16440z"/>
    <path fill="#F4F4F4" d="M2975,16154.999c-60-20.996-78.999-50.996-98.999-150c-22.002-109.004-57.002-210-103.003-292.002
		c-53.999-97.998-36.997-157.998,49.004-178.994c37.998-9.004,70,26.992,96.997,108.994c26.001,77.002,8.003,72.998,166.997,31.006
		c158.008-41.006,476.006-155,661.006-235l90.996-40l-23.994-52.002c-30-66.006-30-110,0.996-162.998l25-42.002l40.996,15.996
		c49.004,19.004,59.004,37.998,95,184.004c13.008,53.994,47.002,155,74.004,222.998c50.996,127.998,60.996,185,35.996,217.998
		c-15.996,21.006-45,22.002-90.996,2.002c-37.998-15-49.004-35.996-60-109.004l-7.998-47.998l-46.006,7.002
		c-186.992,25.996-832.998,242.002-848.994,282.998c-3.003,7.998,2.998,47.998,12.998,87.998c17.002,70,17.002,75,1.001,119.004
		C3026.001,16175.995,3028.999,16174.003,2975,16154.999z"/>
    <path fill="#F4F4F4" d="M5880,15889.999c-77.002-154.004-140-285.996-140-292.002c0-23.994,100.996-142.998,304.004-357.998
		c242.998-257.001,450-487.997,527.998-590.995c102.002-134.004,122.002-271.006,72.998-496.006
		c-4.004-17.998-12.002-22.998-37.998-22.998c-27.002,0-37.998,7.998-67.002,47.998c-65,87.998-190.996,152.998-360.996,187.998
		c-122.002,25-316.006,16.006-424.004-20c-44.004-13.994-102.998-38.994-132.002-55.996
		c-118.994-69.004-268.994-240.996-342.998-394.004C5069.003,13460,5010.996,12650,5150.996,12080
		c83.008-339.004,218.008-565,414.004-695c152.002-100.996,290.996-142.002,455-132.002c167.002,10,322.998,69.004,517.998,196.006
		c51.006,33.994,95,60.996,96.006,60.996c10,0,26.992-170.996,26.992-262.002c0-110.996-15-177.998-52.998-238.994
		c-12.998-20-178.994-200-368.994-400c-471.006-495-489.004-517.002-489.004-603.008c0-42.998,2.002-47.998,85-180.996
		c67.002-107.998,155-277.002,174.004-337.002c6.992-20.996,15-37.998,17.998-37.998c17.998,0,135,110.996,437.998,415
		c187.002,187.998,442.002,440,567.002,560.996c123.994,120,247.002,247.002,272.002,282.002
		C7397.998,10839.004,7415,10940,7400,11295.996c-5,131.006-10,402.002-10,602.002v362.998l-307.002-2.998L6775,12255l-55-25.996
		c-30-15-89.004-57.002-130-93.008c-40.996-36.992-97.002-80.996-125-96.992c-105.996-61.006-302.002-77.002-390.996-31.006
		c-166.006,85-264.004,312.002-295,682.002c-27.002,315.996,60,687.002,195.996,837.998c89.004,99.004,207.002,150,319.004,137.998
		C6405,13655,6425.996,13645,6507.998,13560c57.002-57.998,95-87.002,144.004-110c117.998-55,352.998-90,610.996-90H7390v332.998
		c0,185,5,392.998,12.002,467.998c28.994,308.008,15,483.008-54.004,661.006c-53.994,142.998-113.994,218.993-288.994,367.997
		c-35,30-195,190-355,355s-348.008,352.998-419.004,419.004c-122.998,113.994-237.998,205.996-255.996,205.996
		C6024.003,16169.999,5957.001,16044.003,5880,15889.999z"/>
    <path fill="#F4F4F4" d="M17304.998,16137.001c-22.002-17.998-202.002-194.004-400-392.002s-432.998-425-522.002-502.998
		c-88.994-77.998-182.002-167.002-207.002-197.002c-100.996-124.003-155-249.003-175-399.999c-15-120-21.992-1197.002-7.998-1225
		c7.002-12.998,24.004-32.002,39.004-42.998c38.994-29.004,165-32.998,347.998-12.002c262.998,30,332.002,52.998,430.996,142.998
		c97.002,87.998,148.008,121.006,221.006,142.998c135,41.006,247.002,12.002,348.994-90.996c297.002-302.002,321.006-1180,40-1460
		c-111.992-112.002-275.996-157.002-405.996-112.002c-64.004,22.002-170.996,92.002-262.998,171.006
		c-114.004,97.998-100,95-455,98.994l-307.998,4.004l3.994-679.004c2.998-727.002,2.998-717.002,56.006-820
		c10.996-22.998,91.992-117.998,178.994-208.994c150-159.004,1110-1104.004,1122.002-1104.004
		c2.998,0,67.002,119.004,142.998,264.004c76.006,145,144.004,270,152.002,275.996c7.998,7.002,15,20,15,29.004
		c0,23.994-92.002,135-239.004,290.996c-70,74.004-243.994,264.004-386.992,420.996c-224.004,246.006-263.008,293.008-279.004,340
		c-14.004,43.008-19.004,93.008-22.998,249.004l-4.004,195.996l41.006-3.994c27.998-2.998,41.992-10,45.996-22.998
		c9.004-28.008,120.996-107.002,220-155c114.004-56.006,199.004-74.004,350-74.004c227.998,0,337.002,42.002,502.998,192.002
		c119.004,107.998,164.004,165.996,231.006,297.002c125,245,187.998,563.994,197.998,1000.996
		c3.994,187.002,0.996,280.996-11.006,397.002c-72.998,685.996-332.998,1110-745.996,1213.994
		c-72.002,18.008-104.004,21.006-215,16.006c-90.996-2.998-147.998-11.006-192.998-25c-87.998-27.998-249.004-119.004-300-169.004
		c-30-30.996-54.004-45-82.002-48.994l-40-7.002v165c0,172.002,9.004,245.996,35,302.998c9.004,17.998,80,102.002,157.998,187.002
		c320,347.001,651.006,714.999,675,750.995c35,52.002,34.004,112.998-0.996,191.006c-34.004,72.998-240,445-247.002,445
		C17347,16169.003,17327,16154.999,17304.998,16137.001z"/>
    <path fill="#F4F4F4" d="M2622.998,15282.001c-15.996-10-27.998-102.002-13.999-111.006c13.003-8.994-10-75-47.998-135.996
		c-42.002-67.997-51.001-117.997-51.001-274.999c0-137.998,2.002-149.004,26.001-199.004
		c48.999-96.992,201.997-192.998,311.997-193.994c144.004-1.006,237.998,90.996,402.998,397.002
		c35,65,81.006,137.998,102.002,161.992c34.004,39.004,44.004,44.004,80,44.004c165,0,261.006-122.002,226.006-287.998
		c-25-122.998-112.002-239.004-198.008-262.002c-30.996-7.998-61.992-7.002-135.996,5c-125.996,20-142.002,19.004-170-10
		c-42.002-40.996-27.998-115.996,25-145c10.996-5.996,65.996-19.004,122.002-30c57.002-10.996,135.996-27.998,177.002-40
		c100.996-27.002,198.994-27.002,235,0.996c37.998,30,35.996,73.008-6.006,99.004c-17.998,10.996-37.002,20.996-42.998,22.998
		c-5,2.002,17.998,45,52.002,96.006c35,50.996,70,115.996,77.998,143.994c22.998,76.006,30,222.998,15.996,299.004
		c-36.992,187.997-178.994,309.999-360.996,310.995c-102.002,0-174.004-27.998-244.004-97.002
		c-60.996-58.994-88.994-109.999-152.998-274.999c-23.999-63.994-52.998-130-63.999-146.992
		c-25-41.006-68.999-61.006-148.999-69.004c-57.998-5.996-68.999-4.004-98.999,17.002c-60,40-76.001,80-76.001,187.998
		c0,87.002,2.998,100,30,149.004c57.002,102.997,128.999,129.999,277.998,103.993c97.002-15.996,97.002-15.996,121.006,6.006
		c30,28.994,50,90,33.994,108.994C3075.996,15219.999,2678.999,15317.997,2622.998,15282.001z"/>
    <path fill="#F4F4F4" d="M20204.002,15225.995c-185-35-320-96.992-424.004-192.998C19642,14905,19615.994,14795,19664.998,14550
		c30.996-154.004,55-209.004,117.002-265.996c60-55,100.996-78.008,192.998-110c112.002-38.008,299.004-45,430.996-16.006
		c191.006,42.998,326.006,112.002,426.006,220c90.996,97.998,127.002,194.004,127.998,332.002
		c0,142.002-52.002,277.997-147.002,380.995c-95.996,103.008-192.002,138.008-402.998,144.004
		C20322,15237.997,20250.994,15234.999,20204.002,15225.995z M20500.994,15035.995c235-41.992,358.008-219.999,276.006-399.999
		c-55-118.994-217.998-230-406.006-276.992c-110.996-28.008-267.998-23.008-352.998,10c-177.002,68.994-265,270.996-182.998,420
		c67.998,122.998,242.002,218.993,452.998,249.999C20372,15052.001,20415.994,15050.995,20500.994,15035.995z"/>
    <path fill="#F4F4F4" d="M3522.998,14127.998c-40-42.002-52.998-75.996-52.998-142.998c0-75.996-15.996-89.004-94.004-80.996
		c-33.994,2.998-105.996,8.994-160.996,11.992l-100,6.006l-47.002-32.002c-26.997-17.002-57.998-45.996-70-62.002l-20.996-30.996
		l-27.002,58.994c-63.999,143.008-250,210-397.998,145c-103.003-45.996-180-160-203.003-300.996
		c-21.997-137.998-36.001-662.002-20-735c6.001-27.998,8.999-30,46.001-27.002c81.001,6.006,98.999,37.002,80,139.004
		c-7.002,42.002-7.002,42.998,27.998,57.998c51.001,20.996,191.001,19.004,432.002-5c377.002-39.004,425-45.996,452.998-67.002
		c42.002-32.002,47.998-47.002,34.004-95c-27.002-90-27.002-87.002,12.002-102.998c18.994-7.998,55-15,80-15
		c53.994,0,52.998-4.004,65.996,225c5,94.004,15.996,205,25,247.998c19.004,87.002,12.002,127.998-27.998,165
		c-22.002,21.006-22.998,21.006-64.004,2.002c-45.996-20-55-40-67.998-152.002l-5.996-57.998h-113.008
		c-143.994,0-212.998,12.998-245.996,45c-23.999,25-25,30-25,152.998c0,154.004,16.001,196.006,87.998,231.006
		c39.004,18.994,61.006,20.996,229.004,20.996h185l25,37.998c75.996,114.004,105.996,206.006,87.998,271.006
		c-10,37.998-72.002,120.996-89.004,120.996C3557.002,14160,3540,14145,3522.998,14127.998z M2742.998,13825.996
		c96.001-40.996,150-186.992,127.002-342.998c-6.001-37.998-12.998-90.996-17.002-118.994l-5-51.006l-41.997,15
		c-31.001,11.006-68.999,12.998-152.002,9.004c-127.998-7.002-136.001-2.998-152.998,72.998
		c-27.002,115-2.002,297.998,47.998,357.002C2603.999,13832.002,2677.002,13855,2742.998,13825.996z"/>
    <path fill="#F4F4F4" d="M20889.998,13920.996c0-113.994,9.004-103.994-110-120c-220-30.996-594.004-51.992-717.998-40.996
		c-67.002,5.996-87.002,12.002-107.998,30.996c-24.004,22.002-26.006,28.008-20,85c5,50,2.998,63.008-11.006,77.002
		c-30,27.002-70.996,37.998-92.002,25c-50.996-30.996-61.992-100-35.996-217.998c9.004-42.998,14.004-127.002,15-247.002V13330
		h74.004H19957l5,82.998c5.996,96.006,15.996,121.006,58.994,142.998c47.002,24.004,247.002,35,483.008,28.008
		c193.994-7.002,206.992-8.008,180-22.002c-60-32.002-229.004-92.998-501.006-181.006c-155.996-50-302.998-100-327.998-110.996
		l-45-19.004v-90v-90l52.998-18.994c102.998-39.004,226.006-72.998,482.002-132.002c322.998-75,440.996-110,405-120
		c-14.004-4.004-157.002-12.998-319.004-20c-306.992-14.004-406.992-9.004-438.994,22.998
		c-12.002,12.998-12.002,22.002-1.006,66.006c12.002,45.996,11.006,51.992-6.992,71.992c-23.008,25-60,46.006-93.008,50
		c-20,3.008-25.996-1.992-36.992-30.996c-16.006-42.998-17.002-150-4.004-257.002c12.002-97.002-2.002-468.994-24.004-613.994
		c-7.998-53.008-26.992-139.004-41.992-192.002c-15-55-24.004-107.002-20-120c3.994-17.998,25-35,70-57.998
		c35.996-19.004,66.992-31.006,68.994-29.004c2.998,2.998,11.006,50,17.002,105c12.998,110,22.002,135,47.998,135
		c26.006-0.996,94.004-34.004,171.006-84.004l68.994-43.994l-17.998-89.004c-10-48.994-24.004-135.996-30.996-195l-11.006-105.996
		l-47.002-5c-25-2.998-83.994-10-130-17.002c-45.996-5.996-85-10-85.996-7.998c-2.002,2.002-7.998,47.002-12.998,102.002
		c-16.006,142.998-51.006,180.996-106.006,115c-31.992-38.008-28.994-25-65.996-314.004c-35-274.004-55-369.004-104.004-510
		c-18.994-55-50.996-147.002-70.996-205c-34.004-100-47.998-200.996-30-230c9.004-15,122.002-12.998,127.998,2.998
		c2.002,6.006,10,45,17.002,85c12.998,70,14.004,72.998,39.004,67.998c13.994-2.998,48.994-7.998,75.996-10.996
		c52.998-7.002,210-55,272.998-82.998L20067,10385l-12.998-64.004c-7.002-35-36.006-125.996-64.004-201.992
		c-27.998-77.002-52.998-160-57.002-185c-2.998-26.006-10.996-44.004-17.002-42.002
		c-111.992,30.996-368.994,123.994-372.998,135.996c-3.994,7.998,0,42.998,7.002,76.006c7.002,33.994,15,70.996,17.002,82.998
		c7.998,33.994-46.006,82.998-91.006,82.998c-48.994,0-62.998-25-95.996-172.998c-30-132.002-50-187.998-105.996-297.998
		c-42.002-85-40-105,16.992-150l40-32.002l41.006,28.994c37.002,26.006,42.998,36.006,53.994,93.008
		c8.008,35.996,17.002,67.998,22.002,72.998c17.998,17.998,534.004-135,810-240l92.998-35l-6.992-31.006
		c-3.008-16.992-18.008-58.994-32.002-93.994c-22.998-57.998-22.998-65-9.004-80c10-10,40-17.002,77.002-20l60-4.004l15,35
		c7.998,19.004,25.996,82.998,40,141.006c12.998,57.998,42.998,150,65.996,203.994c45,104.004,55,182.998,30,230
		c-25,46.006-115.996,4.004-138.994-63.994c-35-100-44.004-115-66.006-108.008c-81.992,27.002-263.994,74.004-282.998,74.004
		c-32.002,0-30,14.004,22.002,165c50,144.004,85,270,85,309.004c0,33.994,9.004,36.992,74.004,25
		c55-10,251.992-71.006,261.992-81.006c3.008-2.998-2.998-48.994-11.992-102.998c-16.006-94.004-16.006-97.998,1.992-115.996
		c11.006-10,33.008-21.006,51.006-25c60.996-12.002,80,20.996,172.002,302.998c53.994,162.998,80.996,258.994,75.996,272.002
		c-7.998,26.992-30,37.998-92.998,46.992l-51.006,6.006l-10-39.004c-5.996-22.002-13.994-60.996-16.992-87.002
		c-6.006-43.994-8.008-45.996-38.008-45.996c-167.998,0.996-885.996,232.998-885.996,287.002c0,25,80,337.002,95,370
		c7.998,17.998,25,38.994,37.002,47.002c12.998,7.998,92.998,28.994,177.998,45c85,16.992,329.004,70,542.002,117.998
		l387.002,85.996l10.996,49.004c27.002,125.996,10.996,152.002-130,222.998c-60.996,30-110,60.996-110,67.998
		c0,6.006-5,19.004-10,27.002c-7.998,12.998-10.996,12.998-19.004,0.996c-6.992-10.996-83.994,26.006-370.996,180L19987.996,12145
		l4.004,180c2.998,130,7.998,187.998,18.994,210c14.004,30,15,30,119.004,37.002c57.998,3.994,259.004,10,445.996,13.994
		l342.002,6.006l10-32.998c6.006-19.004,12.998-56.006,17.002-83.008c7.002-55,37.998-90.996,87.002-100.996
		c37.002-9.004,42.998-0.996,57.002,80c11.992,65,12.998,380,1.992,429.004c-5.996,27.998-8.994,28.994-265.996,97.998
		c-297.998,78.994-527.002,132.998-634.004,147.998c-40.996,5.996-76.992,12.002-78.994,14.004
		c-7.998,7.998,87.998,56.992,158.994,80.996c41.006,14.004,135,42.998,209.004,65c207.002,60,427.002,135,510.996,172.998
		l77.002,35l-5,49.004c-2.998,25.996-8.994,63.994-13.994,82.998s-9.004,115-9.004,212.998V14020h-75h-75V13920.996z
		 M20572.996,11630c72.998-40,137.998-77.002,145-82.002c22.002-17.998,12.998-27.998-25.996-27.998c-20,0-84.004-9.004-142.002-20
		s-135.996-22.998-174.004-27.002c-65.996-5.996-68.994-5-61.992,12.998c3.994,10,10,55,12.998,99.004
		c2.998,45,12.002,90,20,104.004C20369.998,11725.996,20422,11712.002,20572.996,11630z"/>
    <path fill="#F4F4F4" d="M3290,12734.004c-52.002-7.002-124.004-13.008-160-13.008c-110-1.992-110-1.992-110-86.992V12560h184.004
		h182.998l27.002-162.998c27.998-172.998,32.998-266.006,15.996-297.998c-29.004-52.002-189.004-87.002-344.004-74.004
		l-85.996,7.002l1.001,80.996c1.997,134.004-1.001,131.006,103.999,137.998c125,9.004,145,18.008,145,68.008
		c0,52.998-17.998,90-47.002,96.992c-12.998,4.004-83.994-2.998-156.997-15c-91.001-13.994-178.999-20.996-277.002-20.996
		c-141.001,0-142.998,0-171.001-27.002c-35-32.998-35-62.998-1.997-102.002C2622.002,12220,2622.998,12220,2720,12220h97.998
		l11.001-50c6.001-27.998,13.999-75,17.002-104.004l6.997-53.994l-68.999-7.002c-37.998-2.998-98.999-10-136.001-15.996
		c-116.997-16.006-110.996-21.006-148.999,123.994c-30,112.002-31.001,256.006-3.999,311.006
		c35,68.994,61.001,80.996,178.999,80.996c138.003,0,161.001,15,180,117.002c7.002,37.002,6.001,37.002-36.001,48.994
		C2790,12677.998,2745,12680,2690,12675c-47.002-4.004-132.998-10-192.002-14.004c-125-10-165.996-27.998-185-80.996
		c-16.997-50-15.996-90.996,12.002-340.996c22.002-199.004,43.999-510,45-626.006v-42.002l55-11.992
		c32.998-7.002,55-17.002,55-26.006c0-17.002,15-17.002,30,2.002c10,12.002,10,15-3.999,15c-13.003,0-13.999,5-6.001,25.996
		c6.001,14.004,10,56.006,10,93.008c0,133.994,26.001,142.998,455,160.996c120.996,5.996,259.004,14.004,305.996,20
		c96.006,10.996,139.004,2.998,176.006-32.002c18.994-17.998,22.998-30.996,22.998-85c0-70.996,12.998-85.996,82.002-97.998
		c33.994-7.002,38.994-5,47.998,20c15.996,42.998,12.002,249.004-10,452.002c-10.996,102.998-22.002,270.996-25,372.998
		c-2.002,102.002-7.998,197.002-14.004,210.996C3527.998,12752.002,3480,12760,3290,12734.004z"/>
    <path fill="#F4F4F4" d="M7855.996,12112.002c-5-104.004-2.998-237.998,4.004-351.006c7.998-115,10.996-330.996,7.998-588.994
		l-5-407.002l-25.996-75.996C7790,10550,7715.996,10445.996,7545,10275c-60.996-60-267.002-262.998-459.004-449.004
		c-190.996-186.992-385-382.998-428.994-435c-45-51.992-144.004-160-220-237.998c-76.006-78.994-137.002-147.002-135-152.002
		c2.998-8.994,225.996-247.998,380.996-408.994l80-82.002l46.006,35.996c25,20,198.994,191.006,385.996,380
		c187.002,189.004,355.996,355,375,369.004c54.004,39.004,909.003,895,935.996,937.002c75,115.996,100,292.002,90,632.998
		c-10,355,11.006,487.002,92.002,577.002c46.006,50.996,95,75,179.004,88.994c80.996,14.004,1217.002,25,1430.996,14.004
		l142.002-7.002v-885v-883.994l-517.002,6.992c-567.998,7.002-635.996,4.004-772.002-43.994
		c-92.998-32.998-215.996-114.004-326.992-214.004c-157.002-140.996-981.005-950.996-1207.001-1183.994
		c-250-260-350-377.002-345-405c2.002-10,122.998-108.008,282.998-228.008l279.004-208.994l725.996,717.002
		c399.004,393.994,745.996,730.996,770.996,748.994C9394.003,9000,9502.001,9035,9634.999,9055
		c152.998,22.998,702.998,30.996,1035.996,15c140-5.996,306.006-14.004,370-15.996l116.006-3.008l7.002,1187.002
		c5.996,1097.998-2.002,1981.006-19.004,2025c-7.002,16.006-94.004,17.002-1645,17.002H7862.998L7855.996,12112.002z"/>
    <path fill="#F4F4F4" d="M13639.999,12260c-1257.002-5-1337.002-5.996-1362.998-22.998c-15-9.004-27.002-25-27.002-35
		c-2.998-97.998,2.002-3147.002,5-3150c2.002-2.002,112.998,0.996,247.002,7.998c390.996,19.004,1015.996,25,1153.994,10
		c216.006-22.002,365-72.002,482.002-162.998c30-22.002,104.003-100,164.999-171.006c126.006-147.998,171.006-193.994,417.002-420
		c219.004-200,670-645.996,752.998-742.998c35-42.002,67.002-70.996,75-67.998c7.002,2.002,142.998,97.998,302.002,210.996
		l289.004,207.002l-19.004,27.002c-45,64.004-222.998,247.998-404.004,420c-107.998,102.002-390.996,385-628.994,630
		c-541.006,555-640,640.996-819.004,710c-152.997,59.004-217.001,64.004-784.999,62.002l-512.998-2.998v883.994v884.004
		l752.998,5.996c451.006,4.004,767.997,2.998,792.001-2.998c140.996-32.002,220-115,270.996-285.996
		c19.004-63.008,22.002-165,15-579.004c-5-229.004,7.002-297.002,76.006-435c40-79.004,100.996-145.996,338.994-367.002
		c188.008-175,433.008-412.998,917.002-887.998c257.998-252.998,472.998-462.002,479.004-464.004c5-1.992,20.996,2.002,33.994,9.004
		c39.004,20.996,412.002,415.996,434.004,460l20.996,40.996l-28.994,10c-15,5-36.006,23.008-45,38.008
		c-9.004,15.996-270,277.998-577.998,582.998c-659.004,648.994-782.002,780-837.002,887.002
		c-100,192.998-116.006,336.992-102.002,905.996c5,204.004,10.996,449.004,12.002,545c3.994,274.004,7.998,270.996-322.002,267.998
		C15075.994,12265.996,14374.002,12262.998,13639.999,12260z"/>
    <path fill="#F4F4F4" d="M2422.998,11287.998c3.003-65.996,14.004-120,36.001-187.998c17.002-52.002,36.001-139.004,43.003-192.002
		l10.996-97.998h73.003H2660v29.004c0,15.996-7.002,65.996-16.001,110.996c-7.998,45-11.997,85-8.999,89.004
		c3.999,2.998,83.999,5.996,177.998,5c131.001-1.006,232.002-9.004,422.002-33.008c137.002-17.998,250.996-33.994,252.998-35.996
		c6.006-5.996-137.998-94.004-350.996-215.996c-120-68.008-239.004-141.006-264.004-161.006
		c-40.996-35-116.997-67.998-127.998-55.996c-2.998,2.002-11.001,37.002-17.998,77.002c-8.003,40-21.001,80-30,87.998
		c-21.001,22.002-127.002,30.996-127.002,12.002c0-27.002,132.002-654.004,140-662.002c8.999-10,65,17.002,97.998,45.996
		c26.001,25,27.002,32.002,6.001,120c-15,59.004-15,70-2.998,82.002c7.998,7.002,226.001,150.996,483.999,320
		c259.004,170,475.996,314.004,484.004,320.996c10.996,10,10.996,21.006-4.004,69.004c-22.002,69.004-47.998,102.998-92.998,122.002
		c-20,7.998-114.004,20-225,27.998c-219.004,15.996-730,70.996-797.002,85.996c-63.999,14.004-87.998,33.008-92.002,71.006
		c-3.999,40-33.999,57.998-101.997,57.998h-48.999L2422.998,11287.998z"/>
    <path fill="#F4F4F4" d="M3835.996,10339.004c-42.998-33.008-45-54.004-18.994-137.002c12.998-41.006,22.002-79.004,20.996-84.004
		c-2.998-8.994-47.002-27.002-397.998-160c-197.002-75-385-127.998-456.001-127.998c-40,0-43.999,2.998-48.999,27.998
		C2912.002,9965.996,2892.998,9990,2827.002,9990c-34.004,0-40-4.004-53.003-35c-21.997-54.004-16.997-82.002,36.001-195
		c27.002-57.998,58.999-142.998,70-190c42.998-177.998,43.999-180,127.998-199.004l44.004-8.994l15,35.996
		c12.998,32.002,13.994,47.998,2.998,117.998c-7.002,45-11.001,88.008-7.998,96.006c2.998,7.002,25.996,18.994,50.996,25
		c25,7.002,179.004,62.002,344.004,122.002C3792.998,9882.002,3850,9900,3897.002,9900c35.996,0,40.996-7.002,62.002-85.996
		c15-57.002,38.994-76.006,96.992-76.006c90,0,93.008,37.002,14.004,210c-50,111.006-70,172.998-90.996,277.002
		c-9.004,50-18.008,65.996-52.002,97.998C3880,10365.996,3872.002,10367.002,3835.996,10339.004z"/>
    <path fill="#F4F4F4" d="M4092.002,9504.004C4010,9482.002,3909.004,9437.002,3735,9345
		c-332.998-177.998-417.002-215.996-482.002-222.002l-60-5.996l-7.002,38.994c-3.994,22.002-13.994,49.004-21.992,61.006
		C3149.004,9240,3095,9260,3046.001,9260h-28.999l5-65c5-55,13.999-79.004,60.996-162.002c31.006-53.994,70-132.998,87.002-175.996
		C3230,8705,3260.996,8660,3310.996,8660c38.008,0,79.004,35,79.004,69.004c0,15-10.996,55-25,88.994c-14.004,34.004-25,70-25,80
		c0,35,415,261.006,565.996,307.998c47.002,15,87.002,24.004,91.006,21.006c5.996-7.002,0-15-207.998-267.998
		c-218.008-266.006-399.004-499.004-405-525c-4.004-15,0-33.008,10-47.002c63.994-86.006,97.998-149.004,121.992-220
		c14.004-45,34.004-90,43.008-99.004C3575.996,8049.004,3682.998,8025,3700,8035c15,9.004,2.002,80.996-27.002,157.998
		c-15,37.002-23.994,69.004-22.002,71.006c15,13.994,235,135,394.004,216.992C4230.996,8577.002,4457.998,8680,4482.998,8680
		c7.998,0,21.006-25.996,31.006-57.002c27.998-90.996,38.994-102.998,91.992-102.998c34.004,0,51.005,5.996,70,25
		c33.008,32.998,28.008,50.996-58.994,207.998c-37.998,71.006-79.004,154.004-89.004,185c-10.996,31.006-27.002,76.006-35,100
		c-15.996,46.006-42.002,65-103.994,76.006c-34.004,5.996-37.002,3.994-49.004-25c-19.004-46.006-15.996-78.008,12.998-142.002
		l26.006-56.006L4317.998,8845c-32.998-25-170.996-100.996-307.002-169.004c-235-117.998-316.992-153.994-326.992-142.998
		c-12.002,12.002,110,169.004,261.992,337.002c210,234.004,284.004,325.996,329.004,412.002
		c59.004,112.002,47.998,190.996-30,223.994C4202.998,9522.998,4160.996,9522.998,4092.002,9504.004z"/>
    <path fill="#F4F4F4" d="M19177,9365.996c-101.006-27.998-186.006-107.998-260-245.996c-104.004-192.002-101.006-360.996,10-487.002
		c57.998-65.996,170.996-135.996,395.996-247.998c129.004-62.998,265-135,304.004-160c78.994-50,77.998-47.002,40-135.996
		c-9.004-20-19.004-59.004-22.998-88.008l-7.002-51.992l78.994,2.998l79.004,2.998l30.996,95c37.002,112.998,67.002,175,141.006,285
		c43.994,65.996,53.994,89.004,50.996,115.996c-3.994,42.002-57.002,81.006-102.998,77.002c-25.996-2.998-35-12.002-67.998-75.996
		c-36.006-67.002-40-72.002-65-66.006c-97.998,23.008-370,160-649.004,327.002L19029.998,8775v60
		c0.996,129.004,50.996,272.998,110,315c40,29.004,100,39.004,162.002,27.998c55.996-10,417.002-177.002,550-253.994
		c42.002-25,95.996-62.002,118.994-82.002c40-36.006,41.006-39.004,34.004-80c-4.004-22.998-10.996-42.002-15-42.002
		c-5,0-14.004-17.998-20-40.996c-32.998-121.006,55-146.006,149.004-44.004c30.996,34.004,45.996,62.998,66.992,132.002
		c29.004,97.002,46.006,130,113.008,217.002c46.992,60,53.994,91.992,36.992,160c-5.996,23.994-10.996,25.996-58.994,25.996
		c-27.998,0-59.004-4.004-67.002-10c-9.004-5.996-17.002-5-22.002,2.998c-5,9.004-12.002,7.002-25-5
		C20147,9140.996,20147,9140,20164.002,9140c15,0,16.992-5,10.996-27.002c-27.998-115.996-99.004-107.002-357.998,45
		c-89.004,52.002-192.002,109.004-229.004,127.998C19434.002,9364.004,19277,9395,19177,9365.996z"/>
    <path fill="#F4F4F4" d="M9887.001,8519.004c-117.002-10-179.004-25-251.006-61.006c-50-25-115-87.002-408.994-387.002
		c-192.998-195.996-447.002-451.992-565-568.994C8434.003,7275,8349.999,7184.004,8349.999,7165c0-7.002,120.996-74.004,270-149.004
		c215.996-110,274.004-135,295-130c79.004,20,325,230,754.004,642.002c262.998,252.998,247.998,246.006,515,250l198.994,4.004
		l-7.002-41.006c-3.994-28.994-17.998-52.998-46.992-82.998c-74.004-77.002-151.006-228.994-185-367.998
		c-13.008-55-16.006-95.996-11.006-187.998c7.002-142.998,22.998-209.004,84.004-332.002c38.994-80.996,60-109.004,137.002-185
		c203.994-202.002,481.992-307.998,960.996-367.002c137.998-17.002,732.002-17.002,850,0
		c412.998,57.998,630,151.006,867.998,371.006c104.004,95.996,181.006,233.994,207.998,368.994c15,79.004,7.002,275-15.996,386.006
		c-22.998,108.994-52.002,168.994-125,255.996c-59.004,70-99.004,137.998-100,167.998c0,9.004,40.996,12.002,172.998,12.002
		c189.004,0,265-12.998,327.002-54.004c19.004-12.998,242.002-215,495-450c252.997-233.994,464.999-425.996,470.995-425.996
		c7.002,0,65,30,130,65.996c65,37.002,172.002,93.008,238.008,125c112.998,56.006,195.996,117.002,195.996,145
		c0,35-1162.001,1205-1259.999,1270c-45.996,30-152.998,51.006-330,63.008c-160.996,11.992-879.004,15-1067.998,3.994
		l-122.002-5.996v-249.004c0-355,15-415.996,140-567.998c34.004-40.996,72.998-92.998,85-115c60-100.996,74.004-280,29.004-375
		c-35-77.002-109.004-142.002-218.008-195c-110.996-54.004-205.996-80.996-353.994-100c-479.004-62.998-945,82.998-1059.004,332.002
		c-22.002,47.002-27.002,72.998-27.002,137.998c-0.996,105.996,25,160.996,134.004,285c90.996,105,122.998,164.004,145,267.002
		c20.996,95,37.002,357.998,29.004,478.994l-7.002,101.006l-330,5.996C10409.003,8532.002,10004.003,8530,9887.001,8519.004z"/>
    <path fill="#F4F4F4" d="M18634.998,8472.998c-55-27.998-95-75.996-185.996-220.996c-87.002-136.006-112.002-171.006-283.008-395
		c-75-97.998-135.996-205-135.996-237.998c0-33.008,217.002-194.004,342.002-254.004c62.002-30,117.998-45,117.998-30.996
		c0,1.992,4.004,25.996,10,55c12.998,70,2.002,95-59.004,125.996c-66.992,32.998-113.994,75.996-150,135l-30,47.998l55,92.998
		c62.002,105,137.002,201.006,190,243.008c35,27.998,36.006,27.998,77.002,11.992c86.006-32.998,287.002-178.994,287.002-207.998
		c0-30-107.002-157.998-132.002-157.998c-3.994,0-32.002,22.002-63.994,50c-64.004,55.996-101.006,67.002-159.004,47.998
		c-52.998-17.002-55.996-42.002-12.002-98.994c70-92.002,445-349.004,510-349.004c42.998,0,77.002,25,77.002,55.996
		c0,36.006-62.998,99.004-124.004,124.004l-52.998,22.002l7.998,43.994c10,55,22.002,78.008,68.008,130l35.996,42.002l74.004-52.002
		c40.996-27.998,96.992-71.992,125-96.992l50-46.006l-48.008-78.994c-65-108.008-147.998-217.002-187.998-247.002
		c-55-42.002-75.996-42.002-142.998-1.006c-190,116.006-210,124.004-244.004,96.006c-11.992-9.004-23.994-34.004-27.998-55
		c-5.996-37.002-2.998-41.006,57.002-99.004C18740.994,7110,19000.994,6930,19024.002,6930
		c23.994,0,143.994,142.998,205.996,244.004C19352,7375.996,19427,7485,19507,7580.996c42.998,53.008,90,110,102.002,128.008
		c43.994,61.992,50,153.994,10.996,165.996c-27.002,9.004-70.996-17.002-142.998-85l-64.004-59.004l-38.994,21.006
		c-99.004,52.998-368.008,240.996-586.006,410L18660.994,8260l39.004,75.996c27.002,51.006,40,88.008,40,114.004
		c0,40,0,40-37.002,40C18682,8489.004,18652,8482.002,18634.998,8472.998z"/>
    <path fill="#F4F4F4" d="M4652.001,8270c-67.001-24.004-115-52.002-217.001-125.996c-44.004-32.002-120-85-170-117.002
		c-49.004-32.998-120-84.004-157.998-114.004c-81.006-65-137.998-92.002-192.998-92.998c-40,0-42.002,2.002-48.008,35.996
		C3855,7912.998,3830,7930,3759.004,7930h-62.002l5.996-49.004c7.998-68.994,37.002-120.996,116.006-205
		c45-48.994,81.992-101.992,111.992-161.992c49.004-98.008,72.002-118.008,151.006-129.004c45-7.002,47.002-5.996,53.994,19.004
		c3.008,13.994,12.002,25.996,19.004,25.996c29.004,0,25.996,22.998-7.998,57.998c-45,47.998-60,77.002-67.002,132.002
		c-5,42.998-4.004,45.996,30,64.004c19.004,10,90,56.992,157.998,105c409.003,286.992,452.001,313.994,512.998,312.998
		c77.002-1.006,188.008-84.004,234.004-175c32.002-65,34.004-142.002,4.004-202.998c-30-63.008-121.006-142.002-303.008-262.002
		c-87.998-59.004-195-131.006-235.996-160c-114.004-82.002-122.998-86.006-154.004-61.006c-15,12.002-35,38.008-45.996,59.004
		c-14.004,27.002-30,42.002-55,50c-57.002,19.004-77.998,10.996-90-35c-17.002-59.004-2.998-92.998,79.004-195
		c40-50.996,100.996-137.998,135-195.996c66.992-112.002,96.992-138.008,153.994-132.002c27.002,2.998,34.004,8.994,44.004,40.996
		c17.002,52.002,7.002,90-40,142.998l-40,46.006l73.994,70.996c41.006,40,131.005,110,199.003,156.006
		c285,192.998,422.998,308.994,467.002,395c72.002,140.996,15.996,325-155,506.992c-99.004,105-165,139.004-271.006,139.004
		C4732.001,8289.004,4685.996,8282.002,4652.001,8270z"/>
    <path fill="#F4F4F4" d="M17919.998,7162.998c-89.004-47.002-140-137.998-140-250.996c0-65,17.002-107.998,60.996-151.006
		c104.004-103.994,290-113.994,375-18.994c38.008,40.996,66.006,110,72.002,175c12.998,162.002-75,260.996-237.998,270.996
		C17982,7190.996,17969.998,7189.004,17919.998,7162.998z"/>
    <path fill="#F4F4F4" d="M5322.001,7155c-29.004-7.998-72.998-29.004-97.998-45.996c-210-144.004-97.002-457.002,165.996-458.008
		c134.004-0.996,225.996,101.006,237.998,261.006c4.004,55,1.006,73.994-17.998,112.002
		C5554.003,7140,5445.996,7189.004,5322.001,7155z"/>
    <path fill="#F4F4F4" d="M13597.001,4809.004c-82.002-11.006-205-50-266.006-86.006c-125-72.998-161.992-142.002-168.994-312.998
		l-4.004-115l57.998-42.002c70-52.002,94.004-52.998,175-12.002l61.006,30l-6.006,51.006c-8.994,65-25.996,95.996-70,130.996
		c-20,15-35.996,34.004-35.996,42.002c0,20,85.996,90,149.004,120.996c73.994,36.006,190,45,256.992,19.004
		c60-22.998,103.008-60,125-110c25-52.998,24.004-90-5-150.996c-28.994-63.008-81.992-108.008-215.996-186.006
		c-232.998-135.996-317.998-210-372.998-325.996c-30-62.002-32.002-75-32.002-172.002c0-100.996,0.996-107.998,34.004-167.998
		c40-72.998,55.996-82.002,141.992-82.002c69.004,0,94.004,17.998,105,75c10,52.998-7.998,85-46.992,85
		c-32.002,0-32.002,0-13.008,20.996c62.002,68.008,131.006,64.004,298.008-16.992c113.994-56.006,121.992-58.008,210-62.002
		c80.996-2.998,95.996-1.006,135.996,20c132.001,70.996,164.999,248.994,77.998,425c-28.994,60-32.002,62.998-67.002,62.998
		c-52.998-0.996-122.998-19.004-145-37.998c-10-9.004-27.998-36.006-37.998-60c-18.994-42.002-18.994-42.998,2.002-76.006
		c20-33.994,62.002-55.996,104.004-55.996c37.998,0,46.992-12.998,35-47.998c-10-29.004-15-32.002-52.002-34.004
		c-82.998-2.998-109.004,4.004-220,57.998l-112.002,56.006l-75-6.006c-40.996-2.998-90-7.998-107.002-11.992
		c-32.998-6.006-32.998-6.006-22.002,22.998c15,45,52.002,75,184.004,148.994c170.996,95,220.996,130,295.996,204.004
		c89.004,89.004,114.004,142.002,114.004,245c0,67.998-4.004,89.004-29.004,140
		C13972.997,4762.998,13815.995,4835.996,13597.001,4809.004z"/>
    <path fill="#F4F4F4" d="M9789.999,4687.002v-74.004l65-5c72.002-5.996,92.002-17.998,112.002-65
		c18.994-47.998,15.996-132.002-12.002-288.994c-14.004-76.006-35.996-224.004-50-328.008
		c-14.004-102.998-32.002-203.994-40-221.992C9847.001,3660,9819.003,3650,9707.997,3650h-90l4.004-57.002
		c7.002-82.002,18.994-88.994,165-95c92.002-5,150-13.994,255-42.002c152.002-40,167.002-38.994,210.996,14.004
		c32.002,37.998,32.998,45.996,7.998,60c-10.996,5-21.992,22.998-25.996,37.998c-5,24.004-10,27.998-32.998,24.004
		c-16.006-2.002-52.002,7.002-85,22.002l-57.002,25v43.994c0,25,7.002,80,15,122.998c7.998,44.004,42.002,248.008,75,454.004
		c32.998,205.996,62.002,389.004,65,405.996l5,31.006l-79.004,5.996c-43.994,4.004-115,15-157.998,26.006
		c-42.998,10-103.994,21.992-135,25.996l-57.998,5.996V4687.002z"/>
    <path fill="#F4F4F4" d="M12784.999,4682.998c-10.996-2.002-39.004-10.996-62.002-18.994c-40-15-42.998-18.008-42.998-52.002
		c0-20,10.996-61.006,25-90l24.004-52.002l-42.002,5.996c-67.998,11.006-117.002,32.002-172.002,73.008
		c-89.004,66.992-130.996,83.994-224.004,88.994c-71.992,4.004-85.996,2.002-96.992-12.998
		c-14.004-17.998-18.008-17.998-171.006,2.002c-40,5-42.998,2.998-48.994-24.004c-4.004-15-2.002-88.994,3.994-162.998
		c7.002-74.004,12.002-170,12.002-212.998c0-125,32.998-170,135.996-184.004l47.002-5.996l-8.994,118.994
		c-14.004,191.006-12.002,259.004,10,283.008c32.998,35.996,100.996,20,200.996-49.004c84.004-57.998,122.002-70,222.998-70
		c50,0,92.002-2.998,92.002-5.996c0-13.008-67.998-93.008-155-184.004c-157.998-164.004-182.998-234.004-192.002-532.002
		c-5-165.996-3.994-190,11.006-212.998c38.994-60,140-69.004,173.994-17.002c14.004,22.002,17.002,47.998,14.004,175
		c-2.998,219.004,20.996,335,92.002,442.002c17.998,27.002,77.998,97.998,131.992,155.996c59.004,63.008,110,129.004,126.006,160
		c82.002,171.006,52.002,361.006-62.002,382.002C12815.995,4685,12795.995,4685,12784.999,4682.998z"/>
    <path fill="#F4F4F4" d="M11059.999,4617.002c-112.002-47.002-205-131.006-252.002-225c-20.996-42.998-22.998-61.006-22.998-192.002
		c0-167.002,15-232.002,67.998-302.002c39.004-50.996,79.004-80,155-110c50-18.994,76.006-22.002,202.002-22.002
		c137.998-0.996,147.998,1.006,210,27.002c35.996,16.006,70.996,31.006,79.004,34.004c23.994,10,5-94.004-29.004-164.004
		c-35-70.996-82.002-115.996-160-152.002c-45.996-21.992-69.004-25.996-145.996-25.996c-82.002,0-94.004,2.002-133.008,27.998
		c-50,32.998-58.994,52.002-36.992,76.006c40,43.994,6.992,128.994-61.006,156.992c-83.994,36.006-152.998-30.996-152.998-147.998
		c0.996-185,220.996-308.994,470.996-265c124.004,21.006,208.008,65,295,151.006c120,120,162.002,235,171.006,466.992
		c18.994,487.002-111.006,672.002-482.002,686.006C11125.995,4640,11109.999,4639.004,11059.999,4617.002z M11355.995,4439.004
		c111.006-42.002,162.002-127.002,151.006-250c-7.002-78.008-45-156.006-102.998-209.004l-46.006-42.002l-107.002,4.004
		c-95.996,2.998-113.994,5.996-166.992,32.998c-43.008,22.998-66.006,42.002-87.002,75.996
		c-32.002,53.008-47.002,146.006-29.004,182.002c6.006,12.002,21.006,47.998,32.002,79.004
		c42.002,112.998,90.996,147.002,217.002,147.998C11277.001,4460,11314.003,4454.004,11355.995,4439.004z"/>
</g>
</svg>
