<?xml version="1.0" standalone="no"?>
<!DOCTYPE svg PUBLIC "-//W3C//DTD SVG 20010904//EN"
        "http://www.w3.org/TR/2001/REC-SVG-20010904/DTD/svg10.dtd">
<svg version="1.0" xmlns="http://www.w3.org/2000/svg"
     width="2311.000000pt" height="2462.000000pt" viewBox="0 0 2311.000000 2462.000000"
     preserveAspectRatio="xMidYMid meet">

    <g transform="translate(0.000000,2462.000000) scale(0.100000,-0.100000)"
       fill="#000000" stroke="none">
        <path d="M11424 22186 c-100 -31 -182 -114 -250 -251 -64 -129 -88 -250 -81
-415 14 -336 153 -550 398 -615 71 -19 210 -19 284 0 146 37 244 114 309 243
147 291 115 719 -67 919 -58 63 -116 99 -189 119 -69 18 -346 18 -404 0z m319
-152 c217 -74 307 -501 169 -794 -38 -82 -123 -162 -196 -184 -161 -50 -300
44 -377 255 -76 209 -58 443 46 595 81 117 232 171 358 128z"/>
        <path d="M12463 22160 c-23 -9 -43 -62 -43 -112 0 -23 7 -29 48 -42 26 -9 69
-19 95 -22 30 -4 51 -13 55 -22 3 -8 -7 -108 -22 -221 -15 -113 -36 -276 -47
-361 -25 -191 -44 -262 -78 -296 -24 -24 -30 -25 -89 -19 -73 8 -101 -5 -121
-54 -12 -27 -11 -34 9 -61 12 -16 24 -30 28 -30 57 0 252 -26 337 -45 110 -25
185 -31 244 -19 l32 7 -3 61 -3 61 -50 12 c-27 6 -71 12 -97 12 -48 1 -48 1
-48 35 0 60 20 237 45 392 13 82 29 199 35 259 5 59 11 110 13 112 9 9 37 -11
37 -26 0 -9 60 -230 134 -490 l133 -475 49 -34 c41 -28 56 -32 88 -28 69 8
123 65 151 159 8 27 22 104 30 171 57 449 108 733 134 759 8 8 32 6 86 -8 85
-21 93 -18 125 45 l19 37 -27 25 c-45 42 -68 49 -199 59 -70 5 -170 21 -224
34 -167 42 -197 31 -207 -76 l-5 -49 44 0 c39 0 145 -22 155 -33 9 -8 -17
-252 -45 -433 -16 -104 -33 -228 -37 -277 -5 -75 -9 -86 -21 -75 -24 20 -42
63 -62 150 -11 46 -72 261 -135 476 -64 216 -116 394 -116 396 0 1 -48 6 -107
9 -60 3 -139 12 -178 20 -112 24 -139 26 -162 17z"/>
        <path d="M10805 22143 c-16 -2 -78 -15 -137 -29 -80 -18 -136 -24 -223 -24
-64 0 -125 -4 -135 -10 -22 -12 -40 -60 -40 -106 l0 -34 113 0 114 0 21 -122
c49 -278 85 -709 68 -801 l-7 -37 -66 0 c-37 0 -82 -5 -100 -12 -30 -11 -33
-15 -28 -43 4 -16 11 -42 16 -56 16 -40 73 -45 212 -20 61 11 165 25 229 30
157 14 198 36 198 108 0 65 -29 75 -161 59 l-66 -8 -21 133 c-30 190 -71 526
-79 644 -9 147 19 191 111 179 53 -8 72 3 93 54 13 32 12 36 -12 68 -26 34
-33 36 -100 27z"/>
        <path d="M9914 22049 c-25 -7 -35 -19 -49 -55 -12 -31 -22 -44 -31 -40 -74 28
-134 38 -215 34 -76 -4 -97 -9 -163 -41 -134 -67 -237 -194 -293 -362 -24 -71
-27 -95 -27 -220 0 -132 1 -145 32 -235 102 -294 313 -470 567 -470 254 0 466
174 506 415 20 115 -5 202 -65 234 -23 13 -30 13 -61 -2 -19 -9 -42 -28 -51
-42 -16 -24 -16 -35 -4 -121 11 -85 11 -99 -4 -139 -22 -56 -70 -99 -165 -144
-144 -68 -273 -42 -381 75 -55 61 -120 184 -146 279 -22 82 -30 262 -14 334
25 113 78 190 162 236 49 28 61 30 155 30 96 0 103 -1 144 -30 75 -53 112
-125 144 -277 5 -27 7 -28 76 -28 56 0 71 3 76 17 16 41 -57 423 -101 528 -16
38 -32 42 -92 24z"/>
        <path d="M14093 21313 c-197 -253 -355 -446 -372 -456 -28 -17 -33 -17 -53 -3
-28 20 -97 20 -122 1 -15 -11 -18 -23 -13 -56 9 -66 36 -85 147 -103 107 -17
150 -30 236 -74 74 -37 158 -56 185 -42 20 11 49 60 49 83 0 37 -87 87 -153
87 -37 0 -43 21 -23 75 16 42 107 166 127 173 5 2 76 -19 157 -46 81 -27 166
-53 190 -57 l42 -7 0 -134 0 -134 -25 0 c-13 0 -55 5 -92 11 -58 10 -74 9
-106 -4 -34 -15 -37 -19 -31 -44 16 -71 62 -105 174 -129 268 -57 336 -81 505
-179 61 -35 150 -79 200 -99 49 -20 166 -79 260 -131 201 -111 316 -169 375
-190 41 -15 43 -14 85 16 44 31 51 42 104 162 17 37 49 94 71 125 22 32 40 68
40 81 0 13 -12 45 -27 73 -25 46 -28 48 -57 42 -68 -15 -74 -21 -125 -128 -62
-129 -85 -150 -160 -144 -69 6 -361 149 -361 177 0 37 43 142 110 266 39 72
118 228 178 347 l107 217 35 -6 c19 -3 48 -17 65 -31 24 -20 37 -23 77 -20 56
6 78 21 78 55 0 67 -59 115 -197 159 -43 14 -105 42 -137 62 -120 72 -241 103
-274 70 -38 -38 21 -118 101 -139 l47 -11 -6 -42 c-10 -79 -55 -202 -110 -301
-30 -55 -95 -182 -144 -282 -97 -194 -140 -250 -183 -237 -12 3 -76 35 -142
69 -66 35 -146 71 -177 80 l-58 16 0 82 c0 200 -31 995 -40 1028 -14 52 -52
86 -111 98 -105 23 -69 57 -446 -426z m397 -28 l0 -215 -29 0 c-16 0 -59 9
-96 21 -37 11 -84 23 -106 27 l-39 7 116 175 c130 195 133 200 145 200 5 0 9
-97 9 -215z"/>
        <path d="M8102 21465 c-17 -14 -34 -39 -37 -56 -6 -28 9 -787 20 -1024 l6
-110 -60 -26 c-75 -34 -97 -64 -81 -114 15 -46 50 -69 92 -61 18 3 66 26 107
51 80 48 111 60 236 94 125 35 149 58 158 149 l4 53 -51 -6 c-28 -4 -75 -18
-104 -32 -65 -31 -95 -22 -118 32 -15 36 -20 191 -6 211 4 6 25 17 46 24 22 7
73 28 115 47 42 20 104 46 138 59 l62 23 51 -46 c50 -45 110 -133 110 -163 0
-8 -21 -26 -47 -40 -62 -32 -133 -97 -133 -121 0 -32 44 -52 98 -46 62 7 482
182 527 220 38 31 44 60 19 95 -18 26 -53 28 -149 10 -49 -9 -70 -8 -93 1 -48
20 -286 275 -536 575 -141 168 -219 226 -305 226 -28 0 -48 -8 -69 -25z m346
-474 c53 -76 63 -101 38 -101 -8 0 -55 -16 -105 -35 -49 -19 -97 -35 -104 -35
-21 0 -37 124 -37 278 l1 127 77 -80 c43 -44 102 -114 130 -154z"/>
        <path d="M7349 21135 c-14 -8 -77 -49 -140 -91 -62 -42 -156 -97 -207 -122
-84 -40 -96 -49 -113 -86 -10 -23 -19 -51 -19 -63 0 -29 45 -53 100 -53 29 0
40 -4 40 -15 0 -13 4 -14 21 -5 14 8 17 15 11 23 -7 8 0 24 22 50 l31 38 37
-38 c70 -73 401 -613 385 -629 -8 -8 -122 62 -247 152 -69 49 -172 120 -229
158 -58 37 -152 103 -210 146 -163 119 -149 117 -264 43 -38 -25 -116 -67
-172 -94 -62 -29 -106 -56 -109 -66 -2 -10 -6 -43 -8 -73 l-3 -55 53 1 c34 1
60 8 72 19 28 25 91 30 129 11 41 -22 74 -68 183 -261 50 -88 118 -202 151
-254 71 -113 104 -181 113 -238 5 -33 3 -43 -7 -43 -36 0 -91 -23 -103 -43 -8
-12 -18 -39 -21 -60 -7 -37 -7 -37 38 -57 57 -25 68 -21 184 64 51 38 139 90
210 123 67 31 125 63 128 71 3 9 8 42 12 74 l6 58 -45 0 c-29 0 -62 -9 -92
-25 -27 -14 -64 -25 -86 -25 -38 0 -39 1 -118 123 -197 304 -323 519 -310 532
2 2 30 -17 63 -42 33 -24 148 -104 255 -176 107 -72 247 -168 310 -213 154
-111 228 -154 263 -154 19 0 51 16 88 43 53 38 58 45 59 80 0 49 -41 172 -88
262 -20 39 -97 160 -170 269 -112 167 -242 395 -242 423 0 5 23 21 50 36 67
38 84 65 77 124 -3 29 -12 52 -23 60 -22 16 -32 16 -65 -2z"/>
        <path d="M17160 20364 c-11 -28 -13 -84 -4 -108 3 -9 28 -31 55 -51 28 -20 49
-43 49 -53 0 -40 -55 -123 -151 -227 -56 -60 -141 -162 -189 -225 -100 -130
-166 -201 -211 -229 -37 -23 -77 -14 -121 27 -17 15 -43 26 -71 29 -38 5 -47
2 -61 -18 -44 -63 -10 -115 141 -217 65 -44 165 -124 223 -177 120 -111 224
-183 307 -216 82 -32 231 -33 323 -1 313 107 537 434 491 715 -28 172 -131
315 -334 466 -51 38 -139 110 -197 161 -140 123 -177 150 -212 150 -21 0 -31
-6 -38 -26z m348 -428 c182 -118 262 -272 227 -438 -34 -166 -178 -339 -344
-416 -77 -36 -177 -41 -254 -14 -79 28 -177 100 -237 175 -42 52 -48 64 -37
78 39 54 328 402 413 499 85 96 147 157 162 159 2 1 34 -19 70 -43z"/>
        <path d="M5340 19579 c-30 -5 -97 -29 -147 -54 -79 -39 -105 -59 -175 -132
-141 -148 -363 -367 -387 -383 -20 -13 -24 -26 -29 -88 l-5 -72 29 0 c65 1
107 19 155 66 l49 48 72 -69 c40 -38 189 -183 331 -323 l258 -254 -25 -42
c-14 -24 -57 -78 -97 -122 -40 -43 -88 -101 -107 -127 -34 -47 -36 -48 -76
-42 -86 14 -258 58 -555 141 -567 160 -539 156 -598 87 -56 -68 -55 -66 -33
-124 30 -75 86 -168 185 -304 48 -66 168 -241 266 -388 l180 -268 -34 -38
c-24 -27 -36 -52 -41 -85 -4 -27 -5 -50 -2 -53 3 -3 32 -6 65 -7 74 -1 84 7
147 125 28 53 73 118 109 157 75 81 93 113 101 186 l7 56 -42 0 c-60 0 -107
-23 -127 -62 -41 -81 -67 -86 -116 -25 -45 54 -108 153 -108 168 0 15 211 300
227 306 6 3 57 -7 112 -21 55 -14 109 -26 120 -26 36 0 33 -19 -18 -102 -72
-117 -66 -158 23 -158 50 0 85 35 182 179 105 159 394 494 608 705 134 133
169 173 198 231 50 98 68 165 68 260 0 175 -85 335 -256 485 -154 135 -346
198 -514 169z m245 -233 c135 -63 270 -222 325 -381 29 -81 24 -161 -14 -239
-57 -116 -227 -252 -280 -224 -11 6 -70 61 -131 121 -60 61 -149 143 -196 184
-96 80 -234 224 -261 271 l-18 30 47 62 c48 64 141 148 196 177 107 55 215 55
332 -1z m-1235 -1340 c81 -20 250 -74 269 -85 12 -8 9 -20 -18 -75 -33 -68
-71 -100 -128 -112 -27 -5 -32 -3 -41 23 -5 16 -30 54 -54 84 -48 59 -98 130
-117 167 -11 21 -11 23 6 19 10 -3 47 -13 83 -21z"/>
        <path d="M15630 19460 c0 -5 5 -10 11 -10 5 0 7 5 4 10 -3 6 -8 10 -11 10 -2
0 -4 -4 -4 -10z"/>
        <path d="M11465 19440 c-277 -21 -542 -74 -711 -140 -339 -134 -575 -389 -625
-675 -37 -213 47 -478 203 -641 24 -25 41 -54 44 -76 l6 -35 -190 -7 c-238 -9
-250 -6 -345 82 -40 37 -121 112 -182 167 -60 55 -175 161 -255 236 -208 196
-387 354 -447 395 l-51 36 -59 -26 c-32 -15 -125 -65 -208 -111 -82 -46 -185
-100 -228 -121 -80 -38 -84 -44 -58 -90 3 -7 277 -285 609 -619 669 -673 645
-653 802 -675 140 -20 553 -30 969 -23 l414 6 -6 211 c-7 276 -34 442 -88 548
-11 21 -54 72 -97 115 -64 65 -80 88 -94 133 -37 123 -29 222 26 308 38 61
138 145 218 185 237 117 699 152 1003 76 321 -81 474 -297 404 -570 -5 -21
-32 -62 -62 -95 -119 -134 -179 -242 -196 -354 -6 -36 -11 -177 -11 -313 l0
-248 673 4 c740 4 737 4 857 68 86 46 154 109 294 271 70 81 290 308 490 503
348 342 491 492 491 516 0 6 -22 20 -50 30 -27 10 -102 48 -165 84 -165 94
-309 165 -350 171 -34 6 -43 -1 -385 -312 -192 -174 -392 -357 -443 -406 -52
-49 -112 -101 -135 -115 -23 -15 -50 -34 -61 -42 -19 -17 -150 -40 -230 -41
-41 0 -225 20 -234 25 -8 6 23 67 38 75 26 14 126 167 154 237 74 180 74 445
3 623 -39 96 -87 168 -162 245 -190 193 -493 317 -905 370 -152 19 -502 27
-665 15z"/>
        <path d="M18277 19425 c-17 -17 -31 -94 -21 -121 4 -10 19 -32 35 -49 15 -16
32 -42 38 -57 10 -27 4 -34 -290 -305 -274 -255 -347 -313 -389 -312 -8 0 -24
14 -35 32 -32 50 -80 77 -137 77 l-50 0 7 -52 c8 -59 34 -126 65 -165 11 -14
62 -62 114 -107 106 -92 147 -136 231 -251 53 -72 246 -298 265 -310 13 -8
101 44 186 111 103 80 189 174 210 231 16 41 16 44 0 62 -50 55 -129 27 -250
-90 l-86 -82 -58 38 c-74 49 -174 150 -246 248 l-58 79 33 35 c44 46 213 197
249 223 l28 20 26 -21 c15 -12 45 -48 67 -80 46 -68 47 -65 -37 -130 -93 -72
-106 -120 -45 -169 l40 -31 48 23 c31 15 88 63 163 138 63 63 141 137 173 164
65 54 117 119 117 147 0 32 -28 49 -81 49 -60 0 -79 -9 -141 -67 l-48 -44 -49
25 c-60 31 -93 78 -80 114 28 74 111 150 194 178 l49 17 46 -50 c25 -27 87
-103 138 -167 l92 -118 -16 -31 c-9 -18 -54 -69 -99 -113 -62 -60 -87 -93 -96
-123 -12 -41 -12 -43 18 -72 29 -29 32 -30 73 -19 44 12 56 22 127 107 22 27
82 77 132 112 101 69 104 73 103 112 -1 45 -54 111 -237 299 -94 96 -199 211
-235 255 -117 146 -173 206 -215 231 -49 28 -49 28 -68 9z"/>
        <path d="M19150 18364 c-37 -32 -35 -49 10 -121 35 -54 36 -65 13 -99 -52 -80
-436 -342 -668 -456 l-100 -49 -29 60 c-33 67 -60 84 -122 79 -36 -3 -39 -6
-42 -36 -5 -49 44 -138 230 -414 90 -134 185 -279 213 -323 64 -103 125 -165
162 -165 35 1 54 12 131 75 34 28 98 70 144 95 86 47 131 96 126 135 -6 43
-127 72 -181 43 -12 -6 -44 -30 -72 -53 -27 -23 -60 -48 -73 -54 -53 -28 -123
26 -224 174 -70 101 -77 115 -87 169 l-8 45 70 52 c115 85 370 256 510 341
147 89 181 97 220 51 12 -15 39 -46 61 -70 l38 -43 44 32 c24 17 44 34 44 38
0 27 -33 89 -90 170 -37 52 -94 142 -126 199 -33 56 -69 114 -81 127 -30 32
-73 31 -113 -2z"/>
        <path d="M7695 18049 c-71 -54 -176 -131 -232 -170 -108 -75 -196 -160 -191
-184 3 -13 972 -1008 1363 -1400 181 -182 300 -275 430 -340 152 -75 145 -75
798 -75 l577 0 -2 -880 -3 -879 -23 -23 c-22 -23 -26 -23 -255 -22 -147 1
-259 6 -307 15 -55 10 -191 14 -500 14 -352 1 -437 4 -498 18 -99 22 -169 62
-202 114 -46 71 -51 130 -49 515 4 609 14 589 -546 1123 -126 121 -465 453
-751 737 -287 285 -528 518 -536 518 -8 0 -124 -116 -257 -257 l-243 -257 41
-14 c28 -9 56 -32 93 -74 29 -34 356 -377 725 -762 744 -774 688 -705 721
-883 13 -74 16 -175 17 -623 0 -360 5 -595 14 -717 l14 -183 1619 0 1618 0 0
1605 0 1605 -714 0 c-589 0 -728 3 -799 15 -222 39 -365 125 -543 328 -154
175 -248 270 -396 402 -75 66 -161 150 -191 186 -31 35 -116 119 -189 186
-155 141 -448 437 -448 452 0 23 -30 6 -155 -90z"/>
        <path d="M14814 17426 l-719 -725 -85 -40 c-47 -22 -123 -50 -170 -63 -84 -22
-96 -22 -837 -25 l-753 -4 0 -1582 c0 -1416 2 -1585 16 -1605 l15 -22 1598 0
1598 0 19 21 c18 20 19 52 25 768 6 817 5 810 67 925 20 38 223 248 767 794
407 409 740 747 740 752 0 14 -324 388 -381 438 -105 94 -35 143 -601 -416
-274 -270 -663 -656 -865 -859 -402 -403 -399 -399 -435 -557 -14 -60 -17
-123 -15 -396 3 -361 -6 -450 -53 -547 -37 -74 -122 -160 -166 -167 -44 -7
-646 -24 -1104 -31 -198 -3 -393 -8 -432 -11 l-73 -5 0 906 0 905 578 0 c546
0 583 1 658 20 169 43 114 -6 1069 949 529 530 866 874 860 879 -6 5 -86 62
-180 128 -93 65 -223 158 -288 206 -65 49 -122 88 -126 88 -4 0 -331 -326
-727 -724z"/>
        <path d="M3631 17254 c-118 -32 -228 -116 -304 -232 -68 -104 -307 -620 -307
-662 0 -43 24 -80 52 -80 28 0 81 59 104 114 17 41 23 46 51 46 52 0 149 -35
245 -90 50 -29 163 -83 251 -121 153 -66 337 -165 337 -181 0 -5 -13 -32 -30
-61 -29 -53 -37 -97 -23 -146 6 -22 10 -23 56 -18 74 9 88 23 131 133 48 121
107 241 180 364 83 139 91 169 91 340 0 138 -1 148 -27 200 -37 75 -110 164
-188 228 -78 63 -240 146 -330 167 -81 18 -218 18 -289 -1z m226 -210 c245
-54 444 -229 461 -404 5 -58 -29 -151 -106 -283 l-57 -99 -42 5 c-26 3 -77 24
-131 55 -49 28 -140 74 -203 102 -142 65 -328 160 -392 200 -57 36 -58 31 15
180 42 86 64 118 123 177 44 44 84 75 106 81 40 12 138 6 226 -14z"/>
        <path d="M19905 16440 c-176 -19 -357 -98 -476 -208 -132 -122 -189 -242 -189
-396 0 -328 255 -577 541 -528 76 13 133 38 163 71 19 21 19 22 0 69 -27 63
-50 71 -153 47 -93 -21 -149 -16 -218 19 -100 51 -154 139 -155 254 -1 128 42
223 145 319 117 109 250 156 447 157 145 1 203 -14 268 -70 58 -49 113 -162
119 -247 10 -119 -25 -168 -172 -238 -122 -58 -146 -94 -115 -169 24 -57 63
-54 237 19 65 27 150 59 190 70 60 18 77 28 103 61 l32 40 -22 35 c-14 22 -33
38 -53 43 -27 7 -33 14 -39 48 -4 21 -7 62 -8 89 -1 76 -26 183 -60 252 -89
181 -330 289 -585 263z"/>
        <path d="M2975 16155 c-60 -21 -79 -51 -99 -150 -22 -109 -57 -210 -103 -292
-54 -98 -37 -158 49 -179 38 -9 70 27 97 109 26 77 8 73 167 31 158 -41 476
-155 661 -235 l91 -40 -24 -52 c-30 -66 -30 -110 1 -163 l25 -42 41 16 c49 19
59 38 95 184 13 54 47 155 74 223 51 128 61 185 36 218 -16 21 -45 22 -91 2
-38 -15 -49 -36 -60 -109 l-8 -48 -46 7 c-187 26 -833 242 -849 283 -3 8 3 48
13 88 17 70 17 75 1 119 -20 51 -17 49 -71 30z"/>
        <path d="M5880 15890 c-77 -154 -140 -286 -140 -292 0 -24 101 -143 304 -358
243 -257 450 -488 528 -591 102 -134 122 -271 73 -496 -4 -18 -12 -23 -38 -23
-27 0 -38 8 -67 48 -65 88 -191 153 -361 188 -122 25 -316 16 -424 -20 -44
-14 -103 -39 -132 -56 -119 -69 -269 -241 -343 -394 -211 -436 -269 -1246
-129 -1816 83 -339 218 -565 414 -695 152 -101 291 -142 455 -132 167 10 323
69 518 196 51 34 95 61 96 61 10 0 27 -171 27 -262 0 -111 -15 -178 -53 -239
-13 -20 -179 -200 -369 -400 -471 -495 -489 -517 -489 -603 0 -43 2 -48 85
-181 67 -108 155 -277 174 -337 7 -21 15 -38 18 -38 18 0 135 111 438 415 187
188 442 440 567 561 124 120 247 247 272 282 94 131 111 232 96 588 -5 131
-10 402 -10 602 l0 363 -307 -3 -308 -3 -55 -26 c-30 -15 -89 -57 -130 -93
-41 -37 -97 -81 -125 -97 -106 -61 -302 -77 -391 -31 -166 85 -264 312 -295
682 -27 316 60 687 196 838 89 99 207 150 319 138 111 -11 132 -21 214 -106
57 -58 95 -87 144 -110 118 -55 353 -90 611 -90 l127 0 0 333 c0 185 5 393 12
468 29 308 15 483 -54 661 -54 143 -114 219 -289 368 -35 30 -195 190 -355
355 -160 165 -348 353 -419 419 -123 114 -238 206 -256 206 -5 0 -72 -126
-149 -280z"/>
        <path d="M17305 16137 c-22 -18 -202 -194 -400 -392 -198 -198 -433 -425 -522
-503 -89 -78 -182 -167 -207 -197 -101 -124 -155 -249 -175 -400 -15 -120 -22
-1197 -8 -1225 7 -13 24 -32 39 -43 39 -29 165 -33 348 -12 263 30 332 53 431
143 97 88 148 121 221 143 135 41 247 12 349 -91 297 -302 321 -1180 40 -1460
-112 -112 -276 -157 -406 -112 -64 22 -171 92 -263 171 -114 98 -100 95 -455
99 l-308 4 4 -679 c3 -727 3 -717 56 -820 11 -23 92 -118 179 -209 150 -159
1110 -1104 1122 -1104 3 0 67 119 143 264 76 145 144 270 152 276 8 7 15 20
15 29 0 24 -92 135 -239 291 -70 74 -244 264 -387 421 -224 246 -263 293 -279
340 -14 43 -19 93 -23 249 l-4 196 41 -4 c28 -3 42 -10 46 -23 9 -28 121 -107
220 -155 114 -56 199 -74 350 -74 228 0 337 42 503 192 119 108 164 166 231
297 125 245 188 564 198 1001 4 187 1 281 -11 397 -73 686 -333 1110 -746
1214 -72 18 -104 21 -215 16 -91 -3 -148 -11 -193 -25 -88 -28 -249 -119 -300
-169 -30 -31 -54 -45 -82 -49 l-40 -7 0 165 c0 172 9 246 35 303 9 18 80 102
158 187 320 347 651 715 675 751 35 52 34 113 -1 191 -34 73 -240 445 -247
445 -3 0 -23 -14 -45 -32z"/>
        <path d="M2623 15282 c-16 -10 -28 -102 -14 -111 13 -9 -10 -75 -48 -136 -42
-68 -51 -118 -51 -275 0 -138 2 -149 26 -199 49 -97 202 -193 312 -194 144 -1
238 91 403 397 35 65 81 138 102 162 34 39 44 44 80 44 165 0 261 -122 226
-288 -25 -123 -112 -239 -198 -262 -31 -8 -62 -7 -136 5 -126 20 -142 19 -170
-10 -42 -41 -28 -116 25 -145 11 -6 66 -19 122 -30 57 -11 136 -28 177 -40
101 -27 199 -27 235 1 38 30 36 73 -6 99 -18 11 -37 21 -43 23 -5 2 18 45 52
96 35 51 70 116 78 144 23 76 30 223 16 299 -37 188 -179 310 -361 311 -102 0
-174 -28 -244 -97 -61 -59 -89 -110 -153 -275 -24 -64 -53 -130 -64 -147 -25
-41 -69 -61 -149 -69 -58 -6 -69 -4 -99 17 -60 40 -76 80 -76 188 0 87 3 100
30 149 57 103 129 130 278 104 97 -16 97 -16 121 6 30 29 50 90 34 109 -52 62
-449 160 -505 124z"/>
        <path d="M20204 15226 c-185 -35 -320 -97 -424 -193 -138 -128 -164 -238 -115
-483 31 -154 55 -209 117 -266 60 -55 101 -78 193 -110 112 -38 299 -45 431
-16 191 43 326 112 426 220 91 98 127 194 128 332 0 142 -52 278 -147 381 -96
103 -192 138 -403 144 -88 3 -159 0 -206 -9z m297 -190 c235 -42 358 -220 276
-400 -55 -119 -218 -230 -406 -277 -111 -28 -268 -23 -353 10 -177 69 -265
271 -183 420 68 123 242 219 453 250 84 13 128 12 213 -3z"/>
        <path d="M3523 14128 c-40 -42 -53 -76 -53 -143 0 -76 -16 -89 -94 -81 -34 3
-106 9 -161 12 l-100 6 -47 -32 c-27 -17 -58 -46 -70 -62 l-21 -31 -27 59
c-64 143 -250 210 -398 145 -103 -46 -180 -160 -203 -301 -22 -138 -36 -662
-20 -735 6 -28 9 -30 46 -27 81 6 99 37 80 139 -7 42 -7 43 28 58 51 21 191
19 432 -5 377 -39 425 -46 453 -67 42 -32 48 -47 34 -95 -27 -90 -27 -87 12
-103 19 -8 55 -15 80 -15 54 0 53 -4 66 225 5 94 16 205 25 248 19 87 12 128
-28 165 -22 21 -23 21 -64 2 -46 -20 -55 -40 -68 -152 l-6 -58 -113 0 c-144 0
-213 13 -246 45 -24 25 -25 30 -25 153 0 154 16 196 88 231 39 19 61 21 229
21 l185 0 25 38 c76 114 106 206 88 271 -10 38 -72 121 -89 121 -4 0 -21 -15
-38 -32z m-780 -302 c96 -41 150 -187 127 -343 -6 -38 -13 -91 -17 -119 l-5
-51 -42 15 c-31 11 -69 13 -152 9 -128 -7 -136 -3 -153 73 -27 115 -2 298 48
357 55 65 128 88 194 59z"/>
        <path d="M20890 13921 c0 -114 9 -104 -110 -120 -220 -31 -594 -52 -718 -41
-67 6 -87 12 -108 31 -24 22 -26 28 -20 85 5 50 3 63 -11 77 -30 27 -71 38
-92 25 -51 -31 -62 -100 -36 -218 9 -43 14 -127 15 -247 l0 -183 74 0 73 0 5
83 c6 96 16 121 59 143 47 24 247 35 483 28 194 -7 207 -8 180 -22 -60 -32
-229 -93 -501 -181 -156 -50 -303 -100 -328 -111 l-45 -19 0 -90 0 -90 53 -19
c103 -39 226 -73 482 -132 323 -75 441 -110 405 -120 -14 -4 -157 -13 -319
-20 -307 -14 -407 -9 -439 23 -12 13 -12 22 -1 66 12 46 11 52 -7 72 -23 25
-60 46 -93 50 -20 3 -26 -2 -37 -31 -16 -43 -17 -150 -4 -257 12 -97 -2 -469
-24 -614 -8 -53 -27 -139 -42 -192 -15 -55 -24 -107 -20 -120 4 -18 25 -35 70
-58 36 -19 67 -31 69 -29 3 3 11 50 17 105 13 110 22 135 48 135 26 -1 94 -34
171 -84 l69 -44 -18 -89 c-10 -49 -24 -136 -31 -195 l-11 -106 -47 -5 c-25 -3
-84 -10 -130 -17 -46 -6 -85 -10 -86 -8 -2 2 -8 47 -13 102 -16 143 -51 181
-106 115 -32 -38 -29 -25 -66 -314 -35 -274 -55 -369 -104 -510 -19 -55 -51
-147 -71 -205 -34 -100 -48 -201 -30 -230 9 -15 122 -13 128 3 2 6 10 45 17
85 13 70 14 73 39 68 14 -3 49 -8 76 -11 53 -7 210 -55 273 -83 l39 -17 -13
-64 c-7 -35 -36 -126 -64 -202 -28 -77 -53 -160 -57 -185 -3 -26 -11 -44 -17
-42 -112 31 -369 124 -373 136 -4 8 0 43 7 76 7 34 15 71 17 83 8 34 -46 83
-91 83 -49 0 -63 -25 -96 -173 -30 -132 -50 -188 -106 -298 -42 -85 -40 -105
17 -150 l40 -32 41 29 c37 26 43 36 54 93 8 36 17 68 22 73 18 18 534 -135
810 -240 l93 -35 -7 -31 c-3 -17 -18 -59 -32 -94 -23 -58 -23 -65 -9 -80 10
-10 40 -17 77 -20 l60 -4 15 35 c8 19 26 83 40 141 13 58 43 150 66 204 45
104 55 183 30 230 -25 46 -116 4 -139 -64 -35 -100 -44 -115 -66 -108 -82 27
-264 74 -283 74 -32 0 -30 14 22 165 50 144 85 270 85 309 0 34 9 37 74 25 55
-10 252 -71 262 -81 3 -3 -3 -49 -12 -103 -16 -94 -16 -98 2 -116 11 -10 33
-21 51 -25 61 -12 80 21 172 303 54 163 81 259 76 272 -8 27 -30 38 -93 47
l-51 6 -10 -39 c-6 -22 -14 -61 -17 -87 -6 -44 -8 -46 -38 -46 -168 1 -886
233 -886 287 0 25 80 337 95 370 8 18 25 39 37 47 13 8 93 29 178 45 85 17
329 70 542 118 l387 86 11 49 c27 126 11 152 -130 223 -61 30 -110 61 -110 68
0 6 -5 19 -10 27 -8 13 -11 13 -19 1 -7 -11 -84 26 -371 180 l-362 194 4 180
c3 130 8 188 19 210 14 30 15 30 119 37 58 4 259 10 446 14 l342 6 10 -33 c6
-19 13 -56 17 -83 7 -55 38 -91 87 -101 37 -9 43 -1 57 80 12 65 13 380 2 429
-6 28 -9 29 -266 98 -298 79 -527 133 -634 148 -41 6 -77 12 -79 14 -8 8 88
57 159 81 41 14 135 43 209 65 207 60 427 135 511 173 l77 35 -5 49 c-3 26 -9
64 -14 83 -5 19 -9 115 -9 213 l0 177 -75 0 -75 0 0 -99z m-317 -2291 c73 -40
138 -77 145 -82 22 -18 13 -28 -26 -28 -20 0 -84 -9 -142 -20 -58 -11 -136
-23 -174 -27 -66 -6 -69 -5 -62 13 4 10 10 55 13 99 3 45 12 90 20 104 23 37
75 23 226 -59z"/>
        <path d="M3290 12734 c-52 -7 -124 -13 -160 -13 -110 -2 -110 -2 -110 -87 l0
-74 184 0 183 0 27 -163 c28 -173 33 -266 16 -298 -29 -52 -189 -87 -344 -74
l-86 7 1 81 c2 134 -1 131 104 138 125 9 145 18 145 68 0 53 -18 90 -47 97
-13 4 -84 -3 -157 -15 -91 -14 -179 -21 -277 -21 -141 0 -143 0 -171 -27 -35
-33 -35 -63 -2 -102 26 -31 27 -31 124 -31 l98 0 11 -50 c6 -28 14 -75 17
-104 l7 -54 -69 -7 c-38 -3 -99 -10 -136 -16 -117 -16 -111 -21 -149 124 -30
112 -31 256 -4 311 35 69 61 81 179 81 138 0 161 15 180 117 7 37 6 37 -36 49
-28 7 -73 9 -128 4 -47 -4 -133 -10 -192 -14 -125 -10 -166 -28 -185 -81 -17
-50 -16 -91 12 -341 22 -199 44 -510 45 -626 l0 -42 55 -12 c33 -7 55 -17 55
-26 0 -17 15 -17 30 2 10 12 10 15 -4 15 -13 0 -14 5 -6 26 6 14 10 56 10 93
0 134 26 143 455 161 121 6 259 14 306 20 96 11 139 3 176 -32 19 -18 23 -31
23 -85 0 -71 13 -86 82 -98 34 -7 39 -5 48 20 16 43 12 249 -10 452 -11 103
-22 271 -25 373 -2 102 -8 197 -14 211 -23 61 -71 69 -261 43z"/>
        <path d="M7856 12112 c-5 -104 -3 -238 4 -351 8 -115 11 -331 8 -589 l-5 -407
-26 -76 c-47 -139 -121 -243 -292 -414 -61 -60 -267 -263 -459 -449 -191 -187
-385 -383 -429 -435 -45 -52 -144 -160 -220 -238 -76 -79 -137 -147 -135 -152
3 -9 226 -248 381 -409 l80 -82 46 36 c25 20 199 191 386 380 187 189 356 355
375 369 54 39 909 895 936 937 75 116 100 292 90 633 -10 355 11 487 92 577
46 51 95 75 179 89 81 14 1217 25 1431 14 l142 -7 0 -885 0 -884 -517 7 c-568
7 -636 4 -772 -44 -93 -33 -216 -114 -327 -214 -157 -141 -981 -951 -1207
-1184 -250 -260 -350 -377 -345 -405 2 -10 123 -108 283 -228 l279 -209 726
717 c399 394 746 731 771 749 63 42 171 77 304 97 153 23 703 31 1036 15 140
-6 306 -14 370 -16 l116 -3 7 1187 c6 1098 -2 1981 -19 2025 -7 16 -94 17
-1645 17 l-1637 0 -7 -168z"/>
        <path d="M13640 12260 c-1257 -5 -1337 -6 -1363 -23 -15 -9 -27 -25 -27 -35
-3 -98 2 -3147 5 -3150 2 -2 113 1 247 8 391 19 1016 25 1154 10 216 -22 365
-72 482 -163 30 -22 104 -100 165 -171 126 -148 171 -194 417 -420 219 -200
670 -646 753 -743 35 -42 67 -71 75 -68 7 2 143 98 302 211 l289 207 -19 27
c-45 64 -223 248 -404 420 -108 102 -391 385 -629 630 -541 555 -640 641 -819
710 -153 59 -217 64 -785 62 l-513 -3 0 884 0 884 753 6 c451 4 768 3 792 -3
141 -32 220 -115 271 -286 19 -63 22 -165 15 -579 -5 -229 7 -297 76 -435 40
-79 101 -146 339 -367 188 -175 433 -413 917 -888 258 -253 473 -462 479 -464
5 -2 21 2 34 9 39 21 412 416 434 460 l21 41 -29 10 c-15 5 -36 23 -45 38 -9
16 -270 278 -578 583 -659 649 -782 780 -837 887 -100 193 -116 337 -102 906
5 204 11 449 12 545 4 274 8 271 -322 268 -124 -2 -826 -5 -1560 -8z"/>
        <path d="M2423 11288 c3 -66 14 -120 36 -188 17 -52 36 -139 43 -192 l11 -98
73 0 74 0 0 29 c0 16 -7 66 -16 111 -8 45 -12 85 -9 89 4 3 84 6 178 5 131 -1
232 -9 422 -33 137 -18 251 -34 253 -36 6 -6 -138 -94 -351 -216 -120 -68
-239 -141 -264 -161 -41 -35 -117 -68 -128 -56 -3 2 -11 37 -18 77 -8 40 -21
80 -30 88 -21 22 -127 31 -127 12 0 -27 132 -654 140 -662 9 -10 65 17 98 46
26 25 27 32 6 120 -15 59 -15 70 -3 82 8 7 226 151 484 320 259 170 476 314
484 321 11 10 11 21 -4 69 -22 69 -48 103 -93 122 -20 8 -114 20 -225 28 -219
16 -730 71 -797 86 -64 14 -88 33 -92 71 -4 40 -34 58 -102 58 l-49 0 6 -92z"/>
        <path d="M3836 10339 c-43 -33 -45 -54 -19 -137 13 -41 22 -79 21 -84 -3 -9
-47 -27 -398 -160 -197 -75 -385 -128 -456 -128 -40 0 -44 3 -49 28 -23 108
-42 132 -108 132 -34 0 -40 -4 -53 -35 -22 -54 -17 -82 36 -195 27 -58 59
-143 70 -190 43 -178 44 -180 128 -199 l44 -9 15 36 c13 32 14 48 3 118 -7 45
-11 88 -8 96 3 7 26 19 51 25 25 7 179 62 344 122 336 123 393 141 440 141 36
0 41 -7 62 -86 15 -57 39 -76 97 -76 90 0 93 37 14 210 -50 111 -70 173 -91
277 -9 50 -18 66 -52 98 -47 43 -55 44 -91 16z"/>
        <path d="M4092 9504 c-82 -22 -183 -67 -357 -159 -333 -178 -417 -216 -482
-222 l-60 -6 -7 39 c-4 22 -14 49 -22 61 -15 23 -69 43 -118 43 l-29 0 5 -65
c5 -55 14 -79 61 -162 31 -54 70 -133 87 -176 60 -152 91 -197 141 -197 38 0
79 35 79 69 0 15 -11 55 -25 89 -14 34 -25 70 -25 80 0 35 415 261 566 308 47
15 87 24 91 21 6 -7 0 -15 -208 -268 -218 -266 -399 -499 -405 -525 -4 -15 0
-33 10 -47 64 -86 98 -149 122 -220 14 -45 34 -90 43 -99 17 -19 124 -43 141
-33 15 9 2 81 -27 158 -15 37 -24 69 -22 71 15 14 235 135 394 217 186 96 413
199 438 199 8 0 21 -26 31 -57 28 -91 39 -103 92 -103 34 0 51 6 70 25 33 33
28 51 -59 208 -38 71 -79 154 -89 185 -11 31 -27 76 -35 100 -16 46 -42 65
-104 76 -34 6 -37 4 -49 -25 -19 -46 -16 -78 13 -142 l26 -56 -61 -46 c-33
-25 -171 -101 -307 -169 -235 -118 -317 -154 -327 -143 -12 12 110 169 262
337 210 234 284 326 329 412 59 112 48 191 -30 224 -42 17 -84 17 -153 -2z"/>
        <path d="M19177 9366 c-101 -28 -186 -108 -260 -246 -104 -192 -101 -361 10
-487 58 -66 171 -136 396 -248 129 -63 265 -135 304 -160 79 -50 78 -47 40
-136 -9 -20 -19 -59 -23 -88 l-7 -52 79 3 79 3 31 95 c37 113 67 175 141 285
44 66 54 89 51 116 -4 42 -57 81 -103 77 -26 -3 -35 -12 -68 -76 -36 -67 -40
-72 -65 -66 -98 23 -370 160 -649 327 l-103 62 0 60 c1 129 51 273 110 315 40
29 100 39 162 28 56 -10 417 -177 550 -254 42 -25 96 -62 119 -82 40 -36 41
-39 34 -80 -4 -23 -11 -42 -15 -42 -5 0 -14 -18 -20 -41 -33 -121 55 -146 149
-44 31 34 46 63 67 132 29 97 46 130 113 217 47 60 54 92 37 160 -6 24 -11 26
-59 26 -28 0 -59 -4 -67 -10 -9 -6 -17 -5 -22 3 -5 9 -12 7 -25 -5 -16 -17
-16 -18 1 -18 15 0 17 -5 11 -27 -28 -116 -99 -107 -358 45 -89 52 -192 109
-229 128 -154 78 -311 109 -411 80z"/>
        <path d="M9887 8519 c-117 -10 -179 -25 -251 -61 -50 -25 -115 -87 -409 -387
-193 -196 -447 -452 -565 -569 -228 -227 -312 -318 -312 -337 0 -7 121 -74
270 -149 216 -110 274 -135 295 -130 79 20 325 230 754 642 263 253 248 246
515 250 l199 4 -7 -41 c-4 -29 -18 -53 -47 -83 -74 -77 -151 -229 -185 -368
-13 -55 -16 -96 -11 -188 7 -143 23 -209 84 -332 39 -81 60 -109 137 -185 204
-202 482 -308 961 -367 138 -17 732 -17 850 0 413 58 630 151 868 371 104 96
181 234 208 369 15 79 7 275 -16 386 -23 109 -52 169 -125 256 -59 70 -99 138
-100 168 0 9 41 12 173 12 189 0 265 -13 327 -54 19 -13 242 -215 495 -450
253 -234 465 -426 471 -426 7 0 65 30 130 66 65 37 172 93 238 125 113 56 196
117 196 145 0 35 -1162 1205 -1260 1270 -46 30 -153 51 -330 63 -161 12 -879
15 -1068 4 l-122 -6 0 -249 c0 -355 15 -416 140 -568 34 -41 73 -93 85 -115
60 -101 74 -280 29 -375 -35 -77 -109 -142 -218 -195 -111 -54 -206 -81 -354
-100 -479 -63 -945 83 -1059 332 -22 47 -27 73 -27 138 -1 106 25 161 134 285
91 105 123 164 145 267 21 95 37 358 29 479 l-7 101 -330 6 c-408 9 -813 7
-930 -4z"/>
        <path d="M18635 8473 c-55 -28 -95 -76 -186 -221 -87 -136 -112 -171 -283
-395 -75 -98 -136 -205 -136 -238 0 -33 217 -194 342 -254 62 -30 118 -45 118
-31 0 2 4 26 10 55 13 70 2 95 -59 126 -67 33 -114 76 -150 135 l-30 48 55 93
c62 105 137 201 190 243 35 28 36 28 77 12 86 -33 287 -179 287 -208 0 -30
-107 -158 -132 -158 -4 0 -32 22 -64 50 -64 56 -101 67 -159 48 -53 -17 -56
-42 -12 -99 70 -92 445 -349 510 -349 43 0 77 25 77 56 0 36 -63 99 -124 124
l-53 22 8 44 c10 55 22 78 68 130 l36 42 74 -52 c41 -28 97 -72 125 -97 l50
-46 -48 -79 c-65 -108 -148 -217 -188 -247 -55 -42 -76 -42 -143 -1 -190 116
-210 124 -244 96 -12 -9 -24 -34 -28 -55 -6 -37 -3 -41 57 -99 61 -58 321
-238 344 -238 24 0 144 143 206 244 122 202 197 311 277 407 43 53 90 110 102
128 44 62 50 154 11 166 -27 9 -71 -17 -143 -85 l-64 -59 -39 21 c-99 53 -368
241 -586 410 l-127 98 39 76 c27 51 40 88 40 114 0 40 0 40 -37 40 -21 -1 -51
-8 -68 -17z"/>
        <path d="M4652 8270 c-67 -24 -115 -52 -217 -126 -44 -32 -120 -85 -170 -117
-49 -33 -120 -84 -158 -114 -81 -65 -138 -92 -193 -93 -40 0 -42 2 -48 36 -11
57 -36 74 -107 74 l-62 0 6 -49 c8 -69 37 -121 116 -205 45 -49 82 -102 112
-162 49 -98 72 -118 151 -129 45 -7 47 -6 54 19 3 14 12 26 19 26 29 0 26 23
-8 58 -45 48 -60 77 -67 132 -5 43 -4 46 30 64 19 10 90 57 158 105 409 287
452 314 513 313 77 -1 188 -84 234 -175 32 -65 34 -142 4 -203 -30 -63 -121
-142 -303 -262 -88 -59 -195 -131 -236 -160 -114 -82 -123 -86 -154 -61 -15
12 -35 38 -46 59 -14 27 -30 42 -55 50 -57 19 -78 11 -90 -35 -17 -59 -3 -93
79 -195 40 -51 101 -138 135 -196 67 -112 97 -138 154 -132 27 3 34 9 44 41
17 52 7 90 -40 143 l-40 46 74 71 c41 40 131 110 199 156 285 193 423 309 467
395 72 141 16 325 -155 507 -99 105 -165 139 -271 139 -49 -1 -95 -8 -129 -20z"/>
        <path d="M17920 7163 c-89 -47 -140 -138 -140 -251 0 -65 17 -108 61 -151 104
-104 290 -114 375 -19 38 41 66 110 72 175 13 162 -75 261 -238 271 -68 3 -80
1 -130 -25z"/>
        <path d="M5322 7155 c-29 -8 -73 -29 -98 -46 -210 -144 -97 -457 166 -458 134
-1 226 101 238 261 4 55 1 74 -18 112 -56 116 -164 165 -288 131z"/>
        <path d="M13597 4809 c-82 -11 -205 -50 -266 -86 -125 -73 -162 -142 -169
-313 l-4 -115 58 -42 c70 -52 94 -53 175 -12 l61 30 -6 51 c-9 65 -26 96 -70
131 -20 15 -36 34 -36 42 0 20 86 90 149 121 74 36 190 45 257 19 60 -23 103
-60 125 -110 25 -53 24 -90 -5 -151 -29 -63 -82 -108 -216 -186 -233 -136
-318 -210 -373 -326 -30 -62 -32 -75 -32 -172 0 -101 1 -108 34 -168 40 -73
56 -82 142 -82 69 0 94 18 105 75 10 53 -8 85 -47 85 -32 0 -32 0 -13 21 62
68 131 64 298 -17 114 -56 122 -58 210 -62 81 -3 96 -1 136 20 132 71 165 249
78 425 -29 60 -32 63 -67 63 -53 -1 -123 -19 -145 -38 -10 -9 -28 -36 -38 -60
-19 -42 -19 -43 2 -76 20 -34 62 -56 104 -56 38 0 47 -13 35 -48 -10 -29 -15
-32 -52 -34 -83 -3 -109 4 -220 58 l-112 56 -75 -6 c-41 -3 -90 -8 -107 -12
-33 -6 -33 -6 -22 23 15 45 52 75 184 149 171 95 221 130 296 204 89 89 114
142 114 245 0 68 -4 89 -29 140 -83 168 -240 241 -459 214z"/>
        <path d="M9790 4687 l0 -74 65 -5 c72 -6 92 -18 112 -65 19 -48 16 -132 -12
-289 -14 -76 -36 -224 -50 -328 -14 -103 -32 -204 -40 -222 -18 -44 -46 -54
-157 -54 l-90 0 4 -57 c7 -82 19 -89 165 -95 92 -5 150 -14 255 -42 152 -40
167 -39 211 14 32 38 33 46 8 60 -11 5 -22 23 -26 38 -5 24 -10 28 -33 24 -16
-2 -52 7 -85 22 l-57 25 0 44 c0 25 7 80 15 123 8 44 42 248 75 454 33 206 62
389 65 406 l5 31 -79 6 c-44 4 -115 15 -158 26 -43 10 -104 22 -135 26 l-58 6
0 -74z"/>
        <path d="M12785 4683 c-11 -2 -39 -11 -62 -19 -40 -15 -43 -18 -43 -52 0 -20
11 -61 25 -90 l24 -52 -42 6 c-68 11 -117 32 -172 73 -89 67 -131 84 -224 89
-72 4 -86 2 -97 -13 -14 -18 -18 -18 -171 2 -40 5 -43 3 -49 -24 -4 -15 -2
-89 4 -163 7 -74 12 -170 12 -213 0 -125 33 -170 136 -184 l47 -6 -9 119 c-14
191 -12 259 10 283 33 36 101 20 201 -49 84 -58 122 -70 223 -70 50 0 92 -3
92 -6 0 -13 -68 -93 -155 -184 -158 -164 -183 -234 -192 -532 -5 -166 -4 -190
11 -213 39 -60 140 -69 174 -17 14 22 17 48 14 175 -3 219 21 335 92 442 18
27 78 98 132 156 59 63 110 129 126 160 82 171 52 361 -62 382 -14 2 -34 2
-45 0z"/>
        <path d="M11060 4617 c-112 -47 -205 -131 -252 -225 -21 -43 -23 -61 -23 -192
0 -167 15 -232 68 -302 39 -51 79 -80 155 -110 50 -19 76 -22 202 -22 138 -1
148 1 210 27 36 16 71 31 79 34 24 10 5 -94 -29 -164 -35 -71 -82 -116 -160
-152 -46 -22 -69 -26 -146 -26 -82 0 -94 2 -133 28 -50 33 -59 52 -37 76 40
44 7 129 -61 157 -84 36 -153 -31 -153 -148 1 -185 221 -309 471 -265 124 21
208 65 295 151 120 120 162 235 171 467 19 487 -111 672 -482 686 -109 3 -125
2 -175 -20z m296 -178 c111 -42 162 -127 151 -250 -7 -78 -45 -156 -103 -209
l-46 -42 -107 4 c-96 3 -114 6 -167 33 -43 23 -66 42 -87 76 -32 53 -47 146
-29 182 6 12 21 48 32 79 42 113 91 147 217 148 60 0 97 -6 139 -21z"/>
    </g>
</svg>
