<svg xmlns="http://www.w3.org/2000/svg" xmlns:xlink="http://www.w3.org/1999/xlink" id="Layer_1" width="1000" height="1000" x="0" y="0" enable-background="new 0 0 1000 1000" version="1.1" viewBox="0 0 1000 1000" xml:space="preserve"><polygon fill="#00B9F2" points="554.283 976.763 448.341 870.798 872.121 447.062 978.064 552.982"/><polygon fill="#00B9F2" points="872.121 552.982 448.341 129.224 554.283 23.259 978.064 447.062"/><path fill="#EFEFEF" d="M554.283,976.74c-29.237,29.26-76.671,29.26-105.942,0c-29.248-29.259-29.248-76.66,0-105.92	c29.271-29.259,76.705-29.259,105.942,0C583.543,900.08,583.543,947.481,554.283,976.74z"/><path fill="#EFEFEF" d="M554.283,552.982c-29.237,29.259-76.671,29.259-105.942,0c-29.248-29.26-29.248-76.705,0-105.921	c29.271-29.259,76.705-29.259,105.964,0C583.543,476.277,583.543,523.723,554.283,552.982z"/><path fill="#EFEFEF" d="M766.168,764.856c-29.248,29.259-76.683,29.259-105.92,0c-29.281-29.26-29.281-76.694,0-105.921	c29.237-29.259,76.672-29.259,105.92,0C795.438,688.162,795.438,735.597,766.168,764.856z"/><path fill="#EFEFEF" d="M554.283,129.224c-29.237,29.215-76.671,29.215-105.942,0c-29.248-29.259-29.248-76.705,0-105.964	C477.612-6,525.046-6,554.283,23.259C583.543,52.519,583.543,99.964,554.283,129.224z"/><path fill="#EFEFEF" d="M978.064,552.982c-29.26,29.259-76.705,29.259-105.943,0c-29.259-29.26-29.259-76.705,0-105.921	c29.238-29.259,76.684-29.259,105.943,0C1007.301,476.277,1007.323,523.723,978.064,552.982z"/><polygon fill="#FE1254" points="233.755 235.199 339.686 341.119 127.891 552.982 21.928 447.018"/><polygon fill="#FE1254" points="127.891 447.018 341.098 660.226 235.133 766.19 21.928 552.938"/><path fill="#EFEFEF" d="M233.81,235.144c29.248-29.259,76.694-29.259,105.953,0c29.237,29.259,29.237,76.694,0,105.92	c-29.259,29.26-76.705,29.26-105.953,0C204.54,311.838,204.54,264.403,233.81,235.144z"/><path fill="#EFEFEF" d="M233.81,658.902c29.27-29.259,76.694-29.259,105.953,0c29.237,29.26,29.237,76.694,0,105.954	c-29.259,29.259-76.683,29.259-105.953,0C204.562,735.597,204.54,688.162,233.81,658.902z"/><path fill="#EFEFEF" d="M21.928,447.018c29.259-29.259,76.682-29.259,105.963,0c29.248,29.26,29.248,76.705,0,105.921	c-29.282,29.259-76.704,29.259-105.963,0C-7.31,523.723-7.31,476.277,21.928,447.018z"/><path fill="#EFEFEF" d="M764.459,341.075c-29.26,29.271-76.705,29.271-105.942,0c-29.26-29.248-29.26-76.694,0-105.92	c29.237-29.249,76.683-29.249,105.942,0C793.696,264.381,793.718,311.827,764.459,341.075z"/></svg>