<?xml version="1.0" encoding="utf-8"?>
<!-- Generator: Adobe Illustrator 16.0.0, SVG Export Plug-In . SVG Version: 6.00 Build 0)  -->
<!DOCTYPE svg PUBLIC "-//W3C//DTD SVG 1.1//EN" "http://www.w3.org/Graphics/SVG/1.1/DTD/svg11.dtd">
<svg version="1.1" id="Layer_1" xmlns="http://www.w3.org/2000/svg" xmlns:xlink="http://www.w3.org/1999/xlink" x="0px" y="0px"
	 width="1000px" height="1000px" viewBox="0 0 1000 1000" enable-background="new 0 0 1000 1000" xml:space="preserve">
<polygon fill="#00B9F2" points="554.908,976.122 448.966,870.169 872.122,447.062 978.064,552.971 "/>
<polygon fill="#00B9F2" points="872.122,552.971 448.348,129.218 554.285,23.259 978.064,447.062 "/>
<path fill="#050714" d="M554.285,976.729c-29.237,29.26-76.678,29.26-105.937,0s-29.259-76.66,0-105.92s76.7-29.26,105.937,0
	C583.544,900.068,583.544,947.469,554.285,976.729z"/>
<path fill="#050714" d="M554.285,552.971c-29.237,29.26-76.678,29.26-105.937,0s-29.259-76.684,0-105.909
	c29.259-29.271,76.7-29.271,105.958,0C583.544,476.287,583.544,523.711,554.285,552.971z"/>
<path fill="#050714" d="M766.169,764.855c-29.242,29.259-76.683,29.259-105.92,0c-29.281-29.237-29.281-76.705,0-105.92
	c29.237-29.26,76.678-29.26,105.92,0C795.445,688.15,795.445,735.618,766.169,764.855z"/>
<path fill="#050714" d="M554.285,129.218c-29.237,29.243-76.678,29.243-105.937,0c-29.259-29.259-29.259-76.699,0-105.958
	c29.259-29.243,76.7-29.243,105.937,0C583.544,52.519,583.544,99.958,554.285,129.218z"/>
<path fill="#050714" d="M766.169,341.097c-29.242,29.259-76.683,29.259-105.92,0c-29.281-29.259-29.281-76.694,0-105.964
	c29.237-29.249,76.678-29.249,105.92,0C795.429,264.403,795.445,311.838,766.169,341.097z"/>
<path fill="#050714" d="M978.064,552.971c-29.259,29.26-76.699,29.26-105.942,0c-29.259-29.26-29.259-76.684,0-105.909
	c29.243-29.271,76.684-29.271,105.942,0C1007.302,476.287,1007.324,523.711,978.064,552.971z"/>
<polygon fill="#FE1254" points="233.877,235.088 339.814,341.009 127.885,552.971 21.927,447.017 "/>
<polygon fill="#FE1254" points="127.885,447.017 339.776,658.902 233.817,764.855 21.927,552.959 "/>
<path fill="#050714" d="M233.806,235.133c29.259-29.249,76.7-29.249,105.959,0c29.237,29.27,29.237,76.705,0,105.92
	c-29.259,29.271-76.7,29.271-105.959,0C204.546,311.838,204.546,264.403,233.806,235.133z"/>
<path fill="#050714" d="M233.806,658.913c29.276-29.259,76.7-29.259,105.959,0c29.237,29.259,29.237,76.705,0,105.964
	c-29.259,29.26-76.683,29.26-105.959,0C204.563,735.618,204.546,688.172,233.806,658.913z"/>
<path fill="#050714" d="M21.927,447.017c29.259-29.259,76.683-29.259,105.958,0c29.26,29.259,29.26,76.694,0,105.942
	c-29.275,29.238-76.699,29.238-105.958,0C-7.311,523.711-7.311,476.276,21.927,447.017z"/>
</svg>
