<?xml version="1.0" encoding="utf-8"?>
<!-- Generator: Adobe Illustrator 16.0.0, SVG Export Plug-In . SVG Version: 6.00 Build 0)  -->
<!DOCTYPE svg PUBLIC "-//W3C//DTD SVG 1.1//EN" "http://www.w3.org/Graphics/SVG/1.1/DTD/svg11.dtd">
<svg version="1.1" id="Layer_1" xmlns="http://www.w3.org/2000/svg" xmlns:xlink="http://www.w3.org/1999/xlink" x="0px" y="0px"
	 width="12px" height="12px" viewBox="0 0 12 12" enable-background="new 0 0 12 12" xml:space="preserve">
<path fill="#F7F7F7" d="M10.102,9.277C9.568,8.42,8.396,7.5,6,7.5S2.432,8.419,1.899,9.277C2.895,10.525,4.404,11.252,6,11.25
	C7.596,11.252,9.105,10.525,10.102,9.277z"/>
<path fill="#F7F7F7" d="M6,6.75c1.242,0,2.25-1.007,2.25-2.25S7.242,2.25,6,2.25c-1.243,0-2.25,1.007-2.25,2.25S4.757,6.75,6,6.75z"
	/>
<path fill="#F7F7F7" d="M6,0.75C3.101,0.75,0.75,3.101,0.75,6S3.101,11.25,6,11.25S11.25,8.899,11.25,6S8.899,0.75,6,0.75z M0,6
	c0-3.313,2.687-6,6-6s6,2.687,6,6s-2.687,6-6,6S0,9.313,0,6z"/>
</svg>
