<svg xmlns="http://www.w3.org/2000/svg" xmlns:xlink="http://www.w3.org/1999/xlink" id="Layer_1" width="1400" height="354" x="0" y="0" enable-background="new 0 0 1400 354" version="1.1" viewBox="0 0 1400 354" xml:space="preserve"><g id="logotipo_1_"><path fill="#EFEFEF" d="M508.286,278.672c-10.449-4.73-19.07-11.473-25.854-20.223l23.574-28.941 c10.181,13.766,21.699,20.629,34.561,20.629c17.861,0,26.789-10.348,26.789-31.074V103.055h-65.635v-34.82h109.035v148.422 c0,23.034-5.715,40.315-17.145,51.844c-11.438,11.513-28.31,17.267-50.638,17.267C530.29,285.766,518.731,283.402,508.286,278.672z"/><path fill="#EFEFEF" d="M795.883,111.629V255.77h-39.646v-17.145c-5.549,6.25-12.156,11.02-19.832,14.328 c-7.678,3.297-15.984,4.949-24.91,4.949c-18.938,0-33.941-5.441-45.018-16.336c-11.072-10.898-16.604-27.061-16.604-48.48v-81.457 h41.797v75.289c0,23.215,9.729,34.824,29.195,34.824c10,0,18.039-3.254,24.116-9.777c6.063-6.52,9.104-16.215,9.104-29.066v-71.27 H795.883L795.883,111.629z"/><path fill="#EFEFEF" d="M965.598,125.559c10.984,10.719,16.475,26.621,16.475,47.688v82.522h-41.789v-76.082 c0-11.431-2.508-19.96-7.504-25.595c-5.006-5.621-12.238-8.438-21.699-8.438c-10.539,0-18.936,3.27-25.18,9.777 c-6.26,6.52-9.385,16.215-9.385,29.066v71.271h-41.793V111.629h39.922v16.883c5.531-6.07,12.406-10.758,20.625-14.066 c8.217-3.309,17.23-4.949,27.063-4.949C940.188,109.496,954.609,114.84,965.598,125.559z"/><path fill="#EFEFEF" d="M1106.648,248.797c-4.109,3.051-9.16,5.32-15.143,6.836c-5.979,1.52-12.188,2.27-18.613,2.27 c-17.332,0-30.633-4.375-39.922-13.125c-9.285-8.75-13.934-21.602-13.934-38.564V79.746h41.797v35.094h35.633v32.156h-35.633 v58.668c0,6.082,1.516,10.773,4.551,14.066c3.035,3.309,7.41,4.965,13.135,4.965c6.426,0,12.141-1.793,17.145-5.359 L1106.648,248.797z"/><path fill="#EFEFEF" d="M1271.941,111.629V255.77h-39.914V239.16c-10.363,12.496-25.363,18.742-45.008,18.742 c-13.574,0-25.855-3.021-36.842-9.105c-10.982-6.07-19.604-14.738-25.852-25.988c-6.258-11.254-9.379-24.281-9.379-39.102 c0-14.836,3.121-27.863,9.379-39.117c6.246-11.266,14.867-19.918,25.852-25.988c10.985-6.07,23.268-9.105,36.842-9.105 c18.387,0,32.77,5.797,43.129,17.402v-15.27H1271.941z M1220.508,212.758c6.969-7.219,10.445-16.91,10.445-29.051 c0-12.156-3.479-21.836-10.445-29.082c-6.965-7.23-15.723-10.84-26.258-10.84c-10.719,0-19.555,3.609-26.523,10.84 c-6.965,7.246-10.447,16.926-10.447,29.082c0,12.141,3.482,21.832,10.447,29.051c6.971,7.246,15.807,10.855,26.523,10.855 C1204.785,223.613,1213.543,220.004,1220.508,212.758z"/><path fill="#EFEFEF" d="M1370.66,114.84c8.484-3.566,18.266-5.344,29.34-5.344v38.566c-4.648-0.355-7.773-0.531-9.379-0.531 c-11.969,0-21.34,3.348-28.129,10.047c-6.789,6.699-10.182,16.75-10.182,30.148v68.043h-41.797V111.629h39.918v19.031 C1355.438,123.688,1362.176,118.422,1370.66,114.84z"/></g><polygon fill="#00B9F2" points="196.321 345.863 158.797 308.332 308.895 158.25 346.418 195.766"/><polygon fill="#00B9F2" points="308.895 195.766 158.797 45.676 196.321 8.145 346.418 158.25"/><path fill="#EFEFEF" d="M196.321,345.855c-10.355,10.361-27.156,10.361-37.523,0c-10.359-10.363-10.359-27.152,0-37.518	c10.367-10.361,27.168-10.361,37.523,0C206.684,318.703,206.684,335.492,196.321,345.855z"/><path fill="#EFEFEF" d="M196.321,195.766c-10.355,10.363-27.156,10.363-37.523,0c-10.359-10.363-10.359-27.167,0-37.516	c10.367-10.363,27.168-10.363,37.531,0C206.684,168.598,206.684,185.402,196.321,195.766z"/><path fill="#EFEFEF" d="M271.368,270.809c-10.359,10.363-27.16,10.363-37.516,0c-10.371-10.363-10.371-27.164,0-37.516	c10.355-10.363,27.156-10.363,37.516,0C281.735,243.645,281.735,260.445,271.368,270.809z"/><path fill="#EFEFEF" d="M196.321,45.676c-10.355,10.348-27.156,10.348-37.523,0c-10.359-10.363-10.359-27.168,0-37.531	c10.367-10.363,27.168-10.363,37.523,0C206.684,18.508,206.684,35.313,196.321,45.676z"/><path fill="#EFEFEF" d="M346.418,195.766c-10.363,10.363-27.168,10.363-37.523,0c-10.363-10.363-10.363-27.167,0-37.516	c10.355-10.363,27.16-10.363,37.523,0C356.774,168.598,356.782,185.402,346.418,195.766z"/><polygon fill="#FE1254" points="82.793 83.211 120.313 120.727 45.297 195.766 7.767 158.234"/><polygon fill="#FE1254" points="45.297 158.234 120.813 233.75 83.282 271.281 7.767 195.75"/><path fill="#EFEFEF" d="M82.813,83.191c10.359-10.363,27.164-10.363,37.527,0c10.355,10.363,10.355,27.164,0,37.516	c-10.363,10.363-27.168,10.363-37.527,0C72.446,110.355,72.446,93.555,82.813,83.191z"/><path fill="#EFEFEF" d="M82.813,233.281c10.367-10.363,27.164-10.363,37.527,0c10.355,10.363,10.355,27.164,0,37.527	c-10.363,10.361-27.16,10.361-37.527,0C72.454,260.445,72.446,243.645,82.813,233.281z"/><path fill="#EFEFEF" d="M7.767,158.234c10.363-10.363,27.16-10.363,37.531,0c10.359,10.363,10.359,27.168,0,37.516	c-10.371,10.363-27.167,10.363-37.531,0C-2.589,185.402-2.589,168.598,7.767,158.234z"/><path fill="#EFEFEF" d="M270.762,120.711c-10.363,10.367-27.168,10.367-37.521,0c-10.363-10.359-10.363-27.164,0-37.516	c10.354-10.359,27.16-10.359,37.521,0C281.118,93.547,281.125,110.352,270.762,120.711z"/></svg>