<?xml version="1.0" encoding="utf-8"?>
<!-- Generator: Adobe Illustrator 16.0.0, SVG Export Plug-In . SVG Version: 6.00 Build 0)  -->
<!DOCTYPE svg PUBLIC "-//W3C//DTD SVG 1.1//EN" "http://www.w3.org/Graphics/SVG/1.1/DTD/svg11.dtd">
<svg xmlns:xlink="http://www.w3.org/1999/xlink" version="1.1" id="Layer_1" xmlns="http://www.w3.org/2000/svg" x="0px"
     y="0px"
     width="1400px" height="354px" viewBox="0 0 1400 354" enable-background="new 0 0 1400 354" xml:space="preserve">
<g id="logotipo">
	<path fill="#050714" d="M508.285,278.667c-10.451-4.729-19.07-11.469-25.854-20.219l23.576-28.945
		c10.18,13.771,21.697,20.642,34.559,20.642c17.859,0,26.789-10.358,26.789-31.086V103.061h-65.635V68.232h109.035V216.65
		c0,23.039-5.715,40.32-17.145,51.845c-11.438,11.512-28.311,17.276-50.637,17.276C530.291,285.771,518.73,283.396,508.285,278.667z
		"/>
    <path fill="#050714" d="M795.883,111.632v144.136h-39.646v-17.145c-5.549,6.246-12.156,11.027-19.832,14.328
		c-7.678,3.301-15.984,4.957-24.91,4.957c-18.938,0-33.941-5.449-45.018-16.348c-11.072-10.896-16.604-27.057-16.604-48.48v-81.449
		h41.797v75.285c0,23.215,9.729,34.82,29.195,34.82c10,0,18.039-3.254,24.116-9.773c6.063-6.523,9.104-16.207,9.104-29.066v-71.264
		L795.883,111.632L795.883,111.632z"/>
    <path fill="#050714" d="M965.598,125.564c10.984,10.713,16.475,26.613,16.475,47.688v82.516h-41.789v-76.082
		c0-11.43-2.508-19.96-7.504-25.594c-5.006-5.619-12.238-8.436-21.699-8.436c-10.539,0-18.936,3.268-25.18,9.775
		c-6.26,6.527-9.385,16.215-9.385,29.063v71.273h-41.793V111.632h39.922v16.879c5.531-6.07,12.406-10.76,20.625-14.068
		c8.217-3.303,17.23-4.949,27.063-4.949C940.188,109.495,954.609,114.846,965.598,125.564z"/>
    <path fill="#050714" d="M1106.648,248.796c-4.109,3.047-9.16,5.315-15.143,6.836c-5.979,1.517-12.188,2.277-18.613,2.277
		c-17.332,0-30.633-4.375-39.922-13.125c-9.283-8.759-13.934-21.609-13.934-38.578V79.75h41.797v35.096h35.633v32.15h-35.633v58.67
		c0,6.078,1.516,10.768,4.551,14.063c3.035,3.31,7.41,4.961,13.135,4.961c6.426,0,12.141-1.789,17.145-5.358L1106.648,248.796z"/>
    <path fill="#050714" d="M1271.941,111.632v144.136h-39.914v-16.611c-10.363,12.494-25.363,18.754-45.008,18.754
		c-13.574,0-25.855-3.031-36.842-9.113c-10.982-6.063-19.604-14.736-25.852-25.982c-6.258-11.258-9.379-24.289-9.379-39.109
		c0-14.832,3.121-27.861,9.379-39.113c6.246-11.26,14.867-19.92,25.852-25.99c10.985-6.07,23.268-9.105,36.842-9.105
		c18.387,0,32.77,5.797,43.129,17.404v-15.266h41.793V111.632z M1220.508,212.766c6.969-7.228,10.445-16.923,10.445-29.063
		c0-12.152-3.479-21.832-10.445-29.072c-6.965-7.232-15.723-10.848-26.258-10.848c-10.719,0-19.555,3.615-26.523,10.848
		c-6.965,7.24-10.447,16.92-10.447,29.072c0,12.141,3.482,21.836,10.447,29.063c6.971,7.237,15.807,10.854,26.523,10.854
		C1204.785,223.62,1213.543,220.003,1220.508,212.766z"/>
    <path fill="#050714" d="M1370.66,114.846c8.484-3.574,18.266-5.352,29.34-5.352v38.574c-4.648-0.355-7.773-0.533-9.379-0.533
		c-11.969,0-21.34,3.344-28.129,10.043c-6.789,6.699-10.182,16.748-10.182,30.145v68.047h-41.797V111.632h39.918v19.025
		C1355.438,123.686,1362.176,118.421,1370.66,114.846z"/>
</g>
    <polygon fill="#00B9F2" points="196.541,345.636 159.018,308.108 308.895,158.249 346.418,195.761 "/>
    <polygon fill="#00B9F2" points="308.895,195.761 158.799,45.673 196.32,8.145 346.418,158.249 "/>
    <path fill="#050714" d="M196.32,345.851c-10.355,10.363-27.158,10.363-37.521,0c-10.363-10.361-10.363-27.15,0-37.516
	c10.363-10.362,27.166-10.362,37.521,0C206.684,318.698,206.684,335.487,196.32,345.851z"/>
    <path fill="#050714" d="M196.32,195.761c-10.355,10.363-27.158,10.363-37.521,0c-10.363-10.362-10.363-27.157,0-37.512
	c10.363-10.363,27.166-10.363,37.529,0C206.684,168.604,206.684,185.396,196.32,195.761z"/>
    <path fill="#050714" d="M271.367,270.809c-10.357,10.362-27.16,10.362-37.516,0c-10.371-10.354-10.371-27.168,0-37.517
	c10.355-10.362,27.158-10.362,37.516,0C281.736,243.641,281.736,260.452,271.367,270.809z"/>
    <path fill="#050714" d="M196.32,45.673c-10.355,10.355-27.158,10.355-37.521,0c-10.363-10.363-10.363-27.166,0-37.529
	c10.363-10.357,27.166-10.357,37.521,0C206.684,18.507,206.684,35.311,196.32,45.673z"/>
    <path fill="#050714" d="M271.367,120.718c-10.357,10.363-27.16,10.363-37.516,0c-10.371-10.363-10.371-27.166,0-37.529
	c10.355-10.363,27.158-10.363,37.516,0C281.73,93.553,281.736,110.355,271.367,120.718z"/>
    <path fill="#050714" d="M346.418,195.761c-10.363,10.363-27.166,10.363-37.523,0c-10.363-10.362-10.363-27.157,0-37.512
	c10.357-10.363,27.16-10.363,37.523,0C356.773,168.604,356.781,185.396,346.418,195.761z"/>
    <polygon fill="#FE1254" points="82.836,83.171 120.357,120.688 45.295,195.761 7.766,158.234 "/>
    <polygon fill="#FE1254" points="45.295,158.234 120.344,233.279 82.814,270.809 7.766,195.757 "/>
    <path fill="#050714" d="M82.811,83.189c10.363-10.363,27.166-10.363,37.529,0c10.355,10.363,10.355,27.166,0,37.516
	c-10.363,10.363-27.166,10.363-37.529,0C72.447,110.355,72.447,93.553,82.811,83.189z"/>
    <path fill="#050714" d="M82.811,233.284c10.369-10.363,27.166-10.363,37.529,0c10.355,10.362,10.355,27.168,0,37.53
	c-10.363,10.363-27.16,10.363-37.529,0C72.453,260.452,72.447,243.646,82.811,233.284z"/>
    <path fill="#050714" d="M7.766,158.234c10.363-10.363,27.16-10.363,37.529,0c10.363,10.363,10.363,27.163,0,37.522
	c-10.369,10.355-27.166,10.355-37.529,0C-2.59,185.396-2.59,168.598,7.766,158.234z"/>
</svg>
